<svg width="67" height="67" viewBox="0 0 67 67" fill="none" xmlns="http://www.w3.org/2000/svg">
<rect width="67" height="67" rx="10" fill="#B26EF7" fill-opacity="0.6"/>
<g clip-path="url(#clip0_5_159)">
<path d="M33.5 56C45.9264 56 56 45.9264 56 33.5C56 21.0736 45.9264 11 33.5 11C21.0736 11 11 21.0736 11 33.5C11 45.9264 21.0736 56 33.5 56Z" fill="#FFDC64"/>
<path d="M33.5001 52.8966C44.2125 52.8966 52.8967 44.2124 52.8967 33.5C52.8967 22.7875 44.2125 14.1034 33.5001 14.1034C22.7877 14.1034 14.1035 22.7875 14.1035 33.5C14.1035 44.2124 22.7877 52.8966 33.5001 52.8966Z" fill="#FFC850"/>
<path d="M33.4999 50.569C42.9268 50.569 50.5689 42.9269 50.5689 33.5C50.5689 24.0731 42.9268 16.431 33.4999 16.431C24.0729 16.431 16.4309 24.0731 16.4309 33.5C16.4309 42.9269 24.0729 50.569 33.4999 50.569Z" fill="#FFF082"/>
<path d="M36.6034 33.3198V25.1146C38.2097 25.7067 39.319 26.7225 39.319 27.8266C39.319 28.469 39.8403 28.9903 40.4827 28.9903C41.1252 28.9903 41.6465 28.469 41.6465 27.8266C41.6465 25.4563 39.5883 23.4778 36.6034 22.6579V21.8621C36.6034 21.2196 36.0821 20.6984 35.4397 20.6984C34.7972 20.6984 34.2759 21.2196 34.2759 21.8621V22.2761C34.0206 22.2603 33.7624 22.2501 33.5 22.2501C33.2377 22.2501 32.9795 22.2603 32.7241 22.2761V21.8621C32.7241 21.2196 32.2028 20.6984 31.5604 20.6984C30.9179 20.6984 30.3966 21.2196 30.3966 21.8621V22.6579C27.4117 23.4779 25.3535 25.4562 25.3535 27.8266C25.3535 30.9686 27.5283 32.5528 30.3966 33.6802V41.8854C28.7903 41.2932 27.681 40.2775 27.681 39.1734C27.681 38.5309 27.1598 38.0097 26.5173 38.0097C25.8748 38.0097 25.3535 38.5309 25.3535 39.1734C25.3535 41.5436 27.4117 43.5222 30.3966 44.3421V45.1379C30.3966 45.7804 30.9179 46.3017 31.5604 46.3017C32.2028 46.3017 32.7241 45.7804 32.7241 45.1379V44.724C32.9794 44.7398 33.2377 44.75 33.5 44.75C33.7624 44.75 34.0205 44.7398 34.2759 44.724V45.1379C34.2759 45.7804 34.7972 46.3017 35.4397 46.3017C36.0821 46.3017 36.6034 45.7804 36.6034 45.1379V44.3422C39.5883 43.5222 41.6465 41.5438 41.6465 39.1735C41.6466 36.0313 39.4718 34.4471 36.6034 33.3198ZM33.5 24.5776C33.7624 24.5776 34.0204 24.5923 34.2759 24.6132V32.5207C34.1293 32.4755 33.9835 32.4299 33.8357 32.3854C33.44 32.2664 33.0752 32.15 32.7241 32.0344V24.6132C32.9796 24.5922 33.2377 24.5776 33.5 24.5776ZM27.681 27.8265C27.681 26.7224 28.7902 25.7067 30.3966 25.1145V31.143C28.4027 30.2157 27.681 29.2475 27.681 27.8265ZM33.5 42.4224C33.2377 42.4224 32.9796 42.4077 32.7241 42.3868V34.4793C32.8707 34.5244 33.0165 34.5701 33.1644 34.6145C33.56 34.7336 33.9248 34.85 34.2759 34.9656V42.3868C34.0204 42.4078 33.7624 42.4224 33.5 42.4224ZM36.6034 41.8854V35.8569C38.5973 36.7843 39.319 37.7525 39.319 39.1735C39.319 40.2775 38.2098 41.2932 36.6034 41.8854Z" fill="#E7B452"/>
</g>
<defs>
<clipPath id="clip0_5_159">
<rect width="45" height="45" fill="white" transform="translate(11 11)"/>
</clipPath>
</defs>
</svg>
