<svg width="67" height="67" viewBox="0 0 67 67" fill="none" xmlns="http://www.w3.org/2000/svg">
<rect width="67" height="67" rx="10" fill="#FFA2A2"/>
<path d="M32.0677 22.903H19.4717L13.177 33.8092L19.4717 44.7155H32.0677L38.3625 33.8092L32.0677 22.903Z" fill="#DE3226"/>
<path d="M50.952 33.8484H38.356L32.0613 44.7547L38.356 55.661H50.952L57.25 44.7547L50.952 33.8484Z" fill="#F4C23F"/>
<path d="M50.952 33.8484H38.356L32.0613 22.9422L38.356 12.0326H50.952L57.25 22.9422L50.952 33.8484Z" fill="#67BAEB"/>
<path d="M22.1485 22.903H19.4717L13.177 33.8092L19.4717 44.7155H22.1485L15.8537 33.8092L22.1485 22.903Z" fill="#B11A31"/>
<path d="M41.0327 33.8484H38.356L32.0613 44.7547L38.356 55.661H41.0327L34.738 44.7547L41.0327 33.8484Z" fill="#F4A93F"/>
<path d="M41.0327 12.0326H38.356L32.0613 22.9422L38.356 33.8484H41.0327L34.738 22.9422L41.0327 12.0326Z" fill="#46A1F8"/>
<path d="M32.0677 45.3692H19.4717C19.3571 45.369 19.2445 45.3388 19.1453 45.2814C19.046 45.2241 18.9636 45.1416 18.9063 45.0423L12.6083 34.136C12.5522 34.0363 12.5227 33.9237 12.5227 33.8092C12.5227 33.6947 12.5522 33.5822 12.6083 33.4824L18.9063 22.5761C18.9636 22.4768 19.046 22.3944 19.1453 22.337C19.2445 22.2796 19.3571 22.2494 19.4717 22.2493H32.0677C32.1823 22.2494 32.2949 22.2796 32.3942 22.337C32.4934 22.3944 32.5758 22.4768 32.6331 22.5761L38.9311 33.4824C38.9873 33.5822 39.0167 33.6947 39.0167 33.8092C39.0167 33.9237 38.9873 34.0363 38.9311 34.136L32.6331 45.0423C32.5758 45.1416 32.4934 45.2241 32.3942 45.2814C32.2949 45.3388 32.1823 45.369 32.0677 45.3692ZM19.8508 44.0618H31.6886L37.6075 33.8092L31.6886 23.5566H19.8508L13.9287 33.8092L19.8508 44.0618Z" fill="#4D4C78"/>
<path d="M50.9519 56.3147H38.3559C38.2413 56.3146 38.1287 56.2843 38.0295 56.227C37.9303 56.1696 37.8478 56.0872 37.7905 55.9879L31.4958 45.0816C31.4381 44.9823 31.4077 44.8696 31.4077 44.7548C31.4077 44.64 31.4381 44.5272 31.4958 44.4279L37.7905 33.5217C37.8478 33.4224 37.9303 33.3399 38.0295 33.2826C38.1287 33.2252 38.2413 33.1949 38.3559 33.1948H50.9519C51.0666 33.1949 51.1792 33.2252 51.2784 33.2826C51.3776 33.3399 51.46 33.4224 51.5174 33.5217L57.8154 44.4279C57.873 44.5272 57.9034 44.64 57.9034 44.7548C57.9034 44.8696 57.873 44.9823 57.8154 45.0816L51.5174 55.9879C51.46 56.0872 51.3776 56.1696 51.2784 56.227C51.1792 56.2843 51.0666 56.3146 50.9519 56.3147ZM38.7351 55.0074H50.5728L56.495 44.7548L50.5728 34.5021H38.7351L32.8162 44.7548L38.7351 55.0074Z" fill="#4D4C78"/>
<path d="M50.9519 34.5021H38.3559C38.2413 34.502 38.1287 34.4717 38.0295 34.4143C37.9303 34.357 37.8478 34.2745 37.7905 34.1752L31.4958 23.269C31.4381 23.1697 31.4077 23.0569 31.4077 22.9421C31.4077 22.8273 31.4381 22.7146 31.4958 22.6153L37.7905 11.7057C37.8483 11.6069 37.9309 11.5248 38.03 11.4675C38.1291 11.4102 38.2414 11.3797 38.3559 11.3789H50.9519C51.0664 11.3797 51.1788 11.4102 51.2779 11.4675C51.377 11.5248 51.4595 11.6069 51.5174 11.7057L57.8154 22.6153C57.873 22.7146 57.9034 22.8273 57.9034 22.9421C57.9034 23.0569 57.873 23.1697 57.8154 23.269L51.5174 34.1752C51.46 34.2745 51.3776 34.357 51.2784 34.4143C51.1792 34.4717 51.0666 34.502 50.9519 34.5021ZM38.7351 33.1948H50.5728L56.495 22.9421L50.5728 12.6862H38.7351L32.8162 22.9421L38.7351 33.1948Z" fill="#4D4C78"/>
<path d="M13.1772 34.4629H6.65366C6.4803 34.4629 6.31404 34.394 6.19145 34.2714C6.06887 34.1489 6 33.9826 6 33.8092C6 33.6359 6.06887 33.4696 6.19145 33.347C6.31404 33.2244 6.4803 33.1556 6.65366 33.1556H13.1772C13.3505 33.1556 13.5168 33.2244 13.6394 33.347C13.762 33.4696 13.8308 33.6359 13.8308 33.8092C13.8308 33.9826 13.762 34.1489 13.6394 34.2714C13.5168 34.394 13.3505 34.4629 13.1772 34.4629Z" fill="#4D4C78"/>
<path d="M50.952 12.6895C50.8421 12.6895 50.7341 12.6614 50.6382 12.6078C50.5626 12.5671 50.4959 12.5118 50.4418 12.4452C50.3877 12.3785 50.3473 12.3018 50.323 12.2194C50.2987 12.1371 50.2909 12.0508 50.3002 11.9654C50.3094 11.8801 50.3354 11.7974 50.3767 11.7221L54.3837 4.34232C54.4247 4.26678 54.4801 4.20006 54.5469 4.14595C54.6137 4.09185 54.6905 4.05143 54.7729 4.027C54.8553 4.00257 54.9417 3.99461 55.0271 4.00357C55.1126 4.01253 55.1955 4.03824 55.271 4.07922C55.3466 4.12021 55.4133 4.17568 55.4674 4.24245C55.5215 4.30923 55.5619 4.38601 55.5863 4.46841C55.6108 4.5508 55.6187 4.63721 55.6098 4.72268C55.6008 4.80816 55.5751 4.89103 55.5341 4.96657L51.5272 12.3464C51.4709 12.4499 51.3878 12.5364 51.2866 12.5968C51.1854 12.6572 51.0698 12.6892 50.952 12.6895Z" fill="#4D4C78"/>
<path d="M54.1517 61.8218C54.0367 61.8213 53.9238 61.7909 53.8241 61.7336C53.7244 61.6763 53.6413 61.594 53.583 61.495L50.3866 55.9911C50.2995 55.8412 50.2755 55.6628 50.3199 55.4951C50.3644 55.3275 50.4736 55.1844 50.6235 55.0973C50.7735 55.0102 50.9519 54.9862 51.1195 55.0306C51.2872 55.0751 51.4303 55.1843 51.5174 55.3342L54.7138 60.838C54.7572 60.912 54.7856 60.9938 54.7972 61.0788C54.8089 61.1637 54.8036 61.2502 54.7818 61.3331C54.7599 61.416 54.7218 61.4938 54.6698 61.562C54.6177 61.6301 54.5527 61.6873 54.4785 61.7303C54.3799 61.7899 54.2669 61.8215 54.1517 61.8218Z" fill="#4D4C78"/>
<path d="M37.4213 59.1385C37.3183 59.1372 37.217 59.1118 37.1255 59.0643C37.034 59.0168 36.9549 58.9485 36.8946 58.865C36.8342 58.7814 36.7943 58.6849 36.7779 58.5831C36.7615 58.4814 36.7692 58.3772 36.8004 58.2789L37.7384 55.4551C37.7617 55.3694 37.8023 55.2893 37.8577 55.2198C37.913 55.1503 37.982 55.0928 38.0603 55.0508C38.1386 55.0088 38.2247 54.9833 38.3132 54.9757C38.4018 54.9681 38.4909 54.9786 38.5753 55.0067C38.6596 55.0347 38.7373 55.0796 38.8037 55.1387C38.8701 55.1978 38.9237 55.2698 38.9613 55.3503C38.9989 55.4309 39.0197 55.5182 39.0224 55.607C39.0251 55.6958 39.0097 55.7843 38.9771 55.8669L38.0423 58.6907C37.999 58.8212 37.9157 58.9347 37.8042 59.015C37.6928 59.0954 37.5588 59.1386 37.4213 59.1385Z" fill="#4D4C78"/>
<path d="M38.3594 12.6863C38.2641 12.6868 38.1698 12.6663 38.0834 12.6262C37.997 12.5861 37.9204 12.5274 37.8593 12.4542L35.6892 9.88537C35.6338 9.8197 35.5919 9.74377 35.5659 9.66192C35.5399 9.58006 35.5302 9.49388 35.5375 9.4083C35.5448 9.32271 35.5689 9.2394 35.6083 9.16312C35.6478 9.08684 35.7019 9.01908 35.7676 8.96371C35.8333 8.90834 35.9092 8.86645 35.9911 8.84043C36.0729 8.81441 36.1591 8.80476 36.2447 8.81205C36.3303 8.81933 36.4136 8.8434 36.4899 8.88288C36.5661 8.92236 36.6339 8.97648 36.6893 9.04215L38.8561 11.6143C38.9119 11.6795 38.9541 11.7551 38.9804 11.8367C39.0066 11.9184 39.0164 12.0044 39.0091 12.0899C39.0018 12.1754 38.9776 12.2585 38.9378 12.3345C38.8981 12.4105 38.8437 12.4779 38.7777 12.5327C38.6613 12.6326 38.5128 12.6871 38.3594 12.6863Z" fill="#4D4C78"/>
<path d="M19.4718 23.5566C19.3731 23.5567 19.2756 23.5343 19.1868 23.4913C19.0979 23.4483 19.0199 23.3857 18.9587 23.3082L17.0467 20.8897C16.9393 20.7536 16.8902 20.5804 16.9105 20.4082C16.9307 20.2359 17.0185 20.0788 17.1546 19.9713C17.2907 19.8638 17.4639 19.8148 17.6361 19.835C17.8084 19.8553 17.9655 19.9431 18.073 20.0792L19.9849 22.4977C20.0386 22.5649 20.0784 22.6421 20.102 22.7248C20.1257 22.8074 20.1327 22.894 20.1227 22.9794C20.1126 23.0648 20.0858 23.1474 20.0436 23.2223C20.0015 23.2973 19.9449 23.3632 19.8771 23.4161C19.762 23.5079 19.619 23.5575 19.4718 23.5566Z" fill="#4D4C78"/>
<path d="M57.2501 23.5958C57.0767 23.5975 56.9098 23.5303 56.786 23.409C56.6621 23.2876 56.5916 23.122 56.5899 22.9487C56.5881 22.7753 56.6553 22.6083 56.7767 22.4845C56.8981 22.3607 57.0636 22.2902 57.237 22.2885L59.5313 22.2492C59.7047 22.2462 59.8722 22.3122 59.9969 22.4326C60.1216 22.553 60.1934 22.7181 60.1964 22.8915C60.1995 23.0648 60.1335 23.2323 60.0131 23.357C59.8926 23.4818 59.7276 23.5535 59.5542 23.5566L57.2599 23.5958H57.2501Z" fill="#4D4C78"/>
<path d="M57.2468 45.4084C57.0805 45.4108 56.9196 45.3499 56.7968 45.2379C56.6739 45.1259 56.5984 44.9713 56.5855 44.8056C56.5726 44.6398 56.6233 44.4754 56.7273 44.3458C56.8313 44.2161 56.9809 44.1309 57.1454 44.1076L59.7012 43.7056C59.7872 43.6896 59.8755 43.691 59.9608 43.7097C60.0462 43.7284 60.127 43.764 60.1984 43.8145C60.2698 43.8649 60.3303 43.9292 60.3764 44.0035C60.4225 44.0777 60.4532 44.1605 60.4668 44.2468C60.4803 44.3332 60.4764 44.4214 60.4553 44.5062C60.4342 44.591 60.3963 44.6708 60.3438 44.7407C60.2913 44.8106 60.2253 44.8692 60.1498 44.9132C60.0742 44.9572 59.9906 44.9855 59.9039 44.9966L57.3513 45.4019L57.2468 45.4084Z" fill="#4D4C78"/>
<path d="M18.8542 47.0393C18.7771 47.0395 18.7005 47.0251 18.6287 46.9968C18.548 46.9673 18.4739 46.9221 18.4107 46.8639C18.3476 46.8056 18.2966 46.7354 18.2607 46.6573C18.2249 46.5791 18.2049 46.4947 18.2018 46.4088C18.1988 46.3229 18.2128 46.2373 18.2431 46.1569L18.8608 44.49C18.9232 44.3305 19.0458 44.2019 19.2021 44.1319C19.3584 44.0619 19.536 44.056 19.6966 44.1155C19.8572 44.175 19.988 44.2952 20.0609 44.4502C20.1338 44.6052 20.143 44.7826 20.0864 44.9443L19.4687 46.6111C19.4221 46.7366 19.3383 46.8448 19.2284 46.9213C19.1186 46.9979 18.9881 47.039 18.8542 47.0393Z" fill="#4D4C78"/>
<path d="M22.3021 36.4337C22.1738 36.4337 22.0507 36.3827 21.96 36.292C21.8693 36.2013 21.8184 36.0783 21.8184 35.95V31.6685C21.8184 31.5402 21.8693 31.4172 21.96 31.3265C22.0507 31.2358 22.1738 31.1848 22.3021 31.1848C22.4304 31.1848 22.5534 31.2358 22.6441 31.3265C22.7348 31.4172 22.7858 31.5402 22.7858 31.6685V35.95C22.7858 36.0135 22.7733 36.0764 22.749 36.1351C22.7246 36.1938 22.689 36.2471 22.6441 36.292C22.5992 36.3369 22.5459 36.3726 22.4872 36.3969C22.4285 36.4212 22.3656 36.4337 22.3021 36.4337Z" fill="#323150"/>
<path d="M25.3907 36.4337C25.2624 36.4337 25.1394 36.3827 25.0487 36.292C24.9579 36.2013 24.907 36.0783 24.907 35.95V31.6685C24.907 31.5402 24.9579 31.4172 25.0487 31.3265C25.1394 31.2358 25.2624 31.1848 25.3907 31.1848C25.519 31.1848 25.642 31.2358 25.7327 31.3265C25.8234 31.4172 25.8744 31.5402 25.8744 31.6685V35.95C25.8744 36.0783 25.8234 36.2013 25.7327 36.292C25.642 36.3827 25.519 36.4337 25.3907 36.4337Z" fill="#323150"/>
<path d="M29.2375 36.4337H27.0184C26.8901 36.4337 26.7671 36.3827 26.6763 36.292C26.5856 36.2013 26.5347 36.0783 26.5347 35.95V31.6685C26.5347 31.5402 26.5856 31.4172 26.6763 31.3265C26.7671 31.2358 26.8901 31.1848 27.0184 31.1848H29.2375C29.3658 31.1848 29.4889 31.2358 29.5796 31.3265C29.6703 31.4172 29.7213 31.5402 29.7213 31.6685C29.7213 31.7968 29.6703 31.9198 29.5796 32.0106C29.4889 32.1013 29.3658 32.1522 29.2375 32.1522H27.5021V35.4663H29.2375C29.3658 35.4663 29.4889 35.5172 29.5796 35.608C29.6703 35.6987 29.7213 35.8217 29.7213 35.95C29.7213 36.0783 29.6703 36.2013 29.5796 36.292C29.4889 36.3827 29.3658 36.4337 29.2375 36.4337Z" fill="#323150"/>
<path d="M25.3906 34.3158H22.3021C22.1738 34.3158 22.0507 34.2648 21.96 34.1741C21.8693 34.0834 21.8184 33.9604 21.8184 33.8321C21.8184 33.7038 21.8693 33.5808 21.96 33.4901C22.0507 33.3993 22.1738 33.3484 22.3021 33.3484H25.3906C25.5189 33.3484 25.6419 33.3993 25.7326 33.4901C25.8233 33.5808 25.8743 33.7038 25.8743 33.8321C25.8743 33.9604 25.8233 34.0834 25.7326 34.1741C25.6419 34.2648 25.5189 34.3158 25.3906 34.3158Z" fill="#323150"/>
<path d="M28.4434 34.3158H27.0184C26.8901 34.3158 26.7671 34.2648 26.6763 34.1741C26.5856 34.0834 26.5347 33.9604 26.5347 33.8321C26.5347 33.7038 26.5856 33.5808 26.6763 33.4901C26.7671 33.3993 26.8901 33.3484 27.0184 33.3484H28.4434C28.5716 33.3484 28.6947 33.3993 28.7854 33.4901C28.8761 33.5808 28.9271 33.7038 28.9271 33.8321C28.9271 33.9604 28.8761 34.0834 28.7854 34.1741C28.6947 34.2648 28.5716 34.3158 28.4434 34.3158Z" fill="#323150"/>
<path d="M45.3044 25.5666C45.1761 25.5666 45.0531 25.5156 44.9624 25.4249C44.8717 25.3342 44.8207 25.2111 44.8207 25.0829V20.8014C44.8152 20.7347 44.8236 20.6677 44.8454 20.6044C44.8671 20.5412 44.9017 20.4832 44.947 20.434C44.9923 20.3848 45.0473 20.3455 45.1085 20.3187C45.1698 20.2918 45.2359 20.278 45.3028 20.278C45.3697 20.278 45.4358 20.2918 45.4971 20.3187C45.5583 20.3455 45.6133 20.3848 45.6586 20.434C45.7039 20.4832 45.7385 20.5412 45.7602 20.6044C45.782 20.6677 45.7904 20.7347 45.7849 20.8014V25.0829C45.7849 25.2106 45.7344 25.3331 45.6444 25.4237C45.5543 25.5144 45.4322 25.5657 45.3044 25.5666Z" fill="#323150"/>
<path d="M48.3931 25.5666C48.2648 25.5666 48.1417 25.5156 48.051 25.4249C47.9603 25.3342 47.9093 25.2111 47.9093 25.0829V20.8014C47.9039 20.7347 47.9122 20.6677 47.934 20.6044C47.9557 20.5412 47.9903 20.4832 48.0356 20.434C48.0809 20.3848 48.1359 20.3455 48.1972 20.3187C48.2584 20.2918 48.3246 20.278 48.3914 20.278C48.4583 20.278 48.5244 20.2918 48.5857 20.3187C48.6469 20.3455 48.7019 20.3848 48.7472 20.434C48.7925 20.4832 48.8271 20.5412 48.8489 20.6044C48.8706 20.6677 48.879 20.7347 48.8735 20.8014V25.0829C48.8735 25.2106 48.823 25.3331 48.733 25.4237C48.643 25.5144 48.5208 25.5657 48.3931 25.5666Z" fill="#323150"/>
<path d="M48.393 23.4487H45.3045C45.1762 23.4487 45.0532 23.3978 44.9625 23.3071C44.8718 23.2163 44.8208 23.0933 44.8208 22.965C44.8208 22.8367 44.8718 22.7137 44.9625 22.623C45.0532 22.5323 45.1762 22.4813 45.3045 22.4813H48.393C48.5213 22.4813 48.6444 22.5323 48.7351 22.623C48.8258 22.7137 48.8768 22.8367 48.8768 22.965C48.8768 23.0933 48.8258 23.2163 48.7351 23.3071C48.6444 23.3978 48.5213 23.4487 48.393 23.4487Z" fill="#323150"/>
<path d="M43.1965 25.7039C42.7911 25.7055 42.3903 25.618 42.0225 25.4475C41.6547 25.277 41.3289 25.0277 41.0681 24.7172C40.8074 24.4068 40.6181 24.0428 40.5137 23.6511C40.4093 23.2594 40.3923 22.8495 40.4639 22.4505C40.5355 22.0514 40.694 21.673 40.9281 21.3421C41.1623 21.0111 41.4663 20.7357 41.8187 20.5353C42.1711 20.3349 42.5633 20.2145 42.9675 20.1826C43.3716 20.1506 43.7778 20.2079 44.1573 20.3504C44.2706 20.3999 44.3605 20.4909 44.4088 20.6047C44.457 20.7184 44.4599 20.8463 44.4169 20.9622C44.3738 21.078 44.288 21.1729 44.1772 21.2275C44.0663 21.2821 43.9388 21.2922 43.8207 21.2557C43.6211 21.1812 43.4096 21.1435 43.1965 21.1446C42.9347 21.1441 42.676 21.2008 42.4385 21.3107C42.2009 21.4205 41.9902 21.581 41.8211 21.7807C41.652 21.9805 41.5285 22.2148 41.4594 22.4673C41.3902 22.7197 41.377 22.9842 41.4207 23.2423C41.4644 23.5003 41.564 23.7457 41.7124 23.9613C41.8608 24.1769 42.0545 24.3575 42.2799 24.4905C42.5054 24.6235 42.7571 24.7056 43.0176 24.7311C43.2781 24.7567 43.541 24.725 43.788 24.6384C43.849 24.6127 43.9146 24.5998 43.9807 24.6004C44.0469 24.601 44.1122 24.6152 44.1726 24.6421C44.2331 24.669 44.2874 24.708 44.3321 24.7567C44.3769 24.8054 44.4112 24.8627 44.433 24.9252C44.4547 24.9877 44.4634 25.054 44.4584 25.12C44.4535 25.1859 44.4351 25.2502 44.4044 25.3088C44.3737 25.3674 44.3313 25.419 44.2798 25.4606C44.2283 25.5021 44.1688 25.5326 44.1051 25.5503C43.8129 25.652 43.5058 25.7039 43.1965 25.7039Z" fill="#323150"/>
<path d="M41.0753 47.1994C40.947 47.1994 40.8239 47.1485 40.7332 47.0578C40.6425 46.9671 40.5916 46.844 40.5916 46.7157V42.4343C40.5916 42.306 40.6425 42.1829 40.7332 42.0922C40.8239 42.0015 40.947 41.9506 41.0753 41.9506C41.2035 41.9506 41.3266 42.0015 41.4173 42.0922C41.508 42.1829 41.559 42.306 41.559 42.4343V46.7157C41.559 46.844 41.508 46.9671 41.4173 47.0578C41.3266 47.1485 41.2035 47.1994 41.0753 47.1994Z" fill="#323150"/>
<path d="M44.1639 47.1994C44.0356 47.1994 43.9126 47.1485 43.8219 47.0578C43.7311 46.9671 43.6802 46.844 43.6802 46.7157V42.4343C43.6802 42.306 43.7311 42.1829 43.8219 42.0922C43.9126 42.0015 44.0356 41.9506 44.1639 41.9506C44.2922 41.9506 44.4152 42.0015 44.5059 42.0922C44.5966 42.1829 44.6476 42.306 44.6476 42.4343V46.7157C44.6476 46.844 44.5966 46.9671 44.5059 47.0578C44.4152 47.1485 44.2922 47.1994 44.1639 47.1994Z" fill="#323150"/>
<path d="M44.1638 45.0816H41.0753C40.947 45.0816 40.8239 45.0306 40.7332 44.9399C40.6425 44.8492 40.5916 44.7262 40.5916 44.5979C40.5916 44.4696 40.6425 44.3466 40.7332 44.2558C40.8239 44.1651 40.947 44.1142 41.0753 44.1142H44.1638C44.2921 44.1142 44.4151 44.1651 44.5058 44.2558C44.5965 44.3466 44.6475 44.4696 44.6475 44.5979C44.6475 44.7262 44.5965 44.8492 44.5058 44.9399C44.4151 45.0306 44.2921 45.0816 44.1638 45.0816Z" fill="#323150"/>
<path d="M46.9025 47.559C46.4217 47.5581 45.9608 47.3667 45.6209 47.0267C45.2809 46.6867 45.0895 46.2259 45.0886 45.745V43.7645C45.0886 43.2834 45.2797 42.822 45.6199 42.4818C45.9601 42.1417 46.4214 41.9506 46.9025 41.9506C47.3836 41.9506 47.845 42.1417 48.1852 42.4818C48.5253 42.822 48.7164 43.2834 48.7164 43.7645V45.745C48.7156 46.2259 48.5242 46.6867 48.1842 47.0267C47.8442 47.3667 47.3833 47.5581 46.9025 47.559ZM46.9025 42.918C46.678 42.918 46.4627 43.0072 46.304 43.1659C46.1452 43.3247 46.056 43.54 46.056 43.7645V45.745C46.0694 45.9609 46.1646 46.1635 46.3222 46.3116C46.4798 46.4597 46.6879 46.5421 46.9042 46.5421C47.1204 46.5421 47.3285 46.4597 47.4861 46.3116C47.6437 46.1635 47.7389 45.9609 47.7523 45.745V43.7645C47.7514 43.5397 47.6615 43.3244 47.5022 43.1657C47.343 43.0071 47.1273 42.918 46.9025 42.918Z" fill="#323150"/>
<path d="M32.5019 25.2368C32.2375 24.7787 31.6518 24.6218 31.1938 24.8862C30.7358 25.1507 30.5789 25.7363 30.8433 26.1944L34.244 32.0845C34.5084 32.5425 35.0941 32.6994 35.5521 32.435C36.0101 32.1706 36.167 31.5849 35.9026 31.1269L32.5019 25.2368Z" fill="#F44533"/>
<path d="M33.5934 36.5517C33.3289 37.0097 33.4859 37.5954 33.9439 37.8598C34.4019 38.1243 34.9876 37.9673 35.252 37.5093L36.5696 35.2271C36.834 34.7691 36.6771 34.1835 36.2191 33.919C35.7611 33.6546 35.1754 33.8115 34.911 34.2695L33.5934 36.5517Z" fill="#F44533"/>
<path d="M51.2646 14.4039C51.0002 13.9459 50.4145 13.789 49.9565 14.0534C49.4985 14.3179 49.3416 14.9035 49.606 15.3615L53.0067 21.2517C53.2711 21.7097 53.8568 21.8666 54.3148 21.6022C54.7728 21.3377 54.9297 20.7521 54.6653 20.294L51.2646 14.4039Z" fill="#83D0FB"/>
<path d="M51.2169 27.9369C50.9525 28.395 51.1094 28.9806 51.5674 29.2451C52.0254 29.5095 52.6111 29.3526 52.8755 28.8946L55.4509 24.4338C55.7154 23.9758 55.5585 23.3901 55.1004 23.1257C54.6424 22.8613 54.0568 23.0182 53.7923 23.4762L51.2169 27.9369Z" fill="#83D0FB"/>
<path d="M51.2629 36.372C50.9985 35.914 50.4128 35.757 49.9548 36.0215C49.4968 36.2859 49.3399 36.8716 49.6043 37.3296L53.005 43.2197C53.2694 43.6777 53.8551 43.8346 54.3131 43.5702C54.7711 43.3058 54.928 42.7201 54.6636 42.2621L51.2629 36.372Z" fill="#FAD564"/>
<path d="M51.7367 48.7047C51.4722 49.1627 51.6292 49.7484 52.0872 50.0128C52.5452 50.2772 53.1309 50.1203 53.3953 49.6623L55.188 46.5573C55.4524 46.0993 55.2955 45.5136 54.8375 45.2492C54.3794 44.9848 53.7938 45.1417 53.5293 45.5997L51.7367 48.7047Z" fill="#FAD564"/>
</svg>
