<svg width="67" height="67" viewBox="0 0 67 67" fill="none" xmlns="http://www.w3.org/2000/svg">
<rect width="67" height="67" rx="10" fill="#F0F274"/>
<path d="M26.022 51.3997C28.1511 58.4704 30.9679 59.9846 32.9682 60H33.0001C35.0026 60 37.8381 58.5078 39.9782 51.3997C41.4649 46.4614 42.2837 39.9274 42.2837 33C42.2837 26.0726 41.4648 19.5386 39.9782 14.6003C37.8381 7.49217 35.0026 6 33.0001 6H32.9682C30.9679 6.0154 28.1511 7.52961 26.022 14.6003C24.5353 19.5386 23.7166 26.0726 23.7166 33C23.7166 39.9274 24.5353 46.4614 26.022 51.3997ZM29.1882 15.5536C30.6516 10.6891 32.2805 9.348 32.9682 9.30718C32.9791 9.30613 32.9902 9.30613 33.0001 9.30613C33.6679 9.30613 35.3254 10.612 36.8121 15.5536C38.2084 20.191 38.9776 26.3867 38.9776 33C38.9776 39.6133 38.2084 45.809 36.8121 50.4464C35.3254 55.388 33.6679 56.6939 33.0001 56.6939C32.9902 56.6939 32.9791 56.6939 32.9682 56.6928C32.2805 56.652 30.6516 55.3109 29.1882 50.4464C27.7919 45.8091 27.0227 39.6134 27.0227 33C27.0227 26.3866 27.7919 20.191 29.1882 15.5536Z" fill="#84CAFF"/>
<path d="M13.5766 29.8437C15.3432 31.7216 17.5384 33.6546 20.0423 35.5512C22.5461 37.4478 25.3585 39.3081 28.3583 41.0394C29.8968 41.9276 31.4395 42.7564 32.9681 43.5167C37.4005 45.7252 41.7128 47.3651 45.4454 48.2434C52.6715 49.9439 55.3814 48.2335 56.3831 46.5C57.3838 44.7654 57.5094 41.564 52.4235 36.1563C48.8904 32.4005 43.6413 28.4243 37.6418 24.9606C36.0825 24.0603 34.5175 23.2205 32.9681 22.4513C28.5577 20.2593 24.2697 18.6305 20.5547 17.7566C18.4477 17.2607 16.7252 17.0546 15.3167 17.0546C11.8938 17.0546 10.3267 18.2713 9.61701 19.5C8.61632 21.2346 8.49071 24.436 13.5766 29.8437ZM12.4801 21.153C12.815 20.5744 14.7745 19.7931 19.7976 20.9744C23.6812 21.8892 28.2689 23.7009 32.9681 26.1617C33.9721 26.6863 34.9804 27.2417 35.9888 27.8236C41.7161 31.1297 46.6974 34.8943 50.0157 38.4219C53.551 42.1809 53.8541 44.2683 53.5202 44.8469C53.313 45.2051 52.4843 45.6415 50.6912 45.6415C49.5869 45.6415 48.118 45.4751 46.2025 45.0254C42.3014 44.1064 37.6893 42.2824 32.9681 39.8051C31.9851 39.2904 30.9976 38.746 30.0113 38.1762C24.284 34.8701 19.3027 31.1055 15.9845 27.5778C12.4492 23.8189 12.1461 21.7316 12.4801 21.153Z" fill="#00A5FF"/>
<path d="M9.61701 46.5C10.6188 48.2346 13.3298 49.9438 20.5547 48.2434C24.2697 47.3695 28.5577 45.7406 32.9681 43.5486C34.5175 42.7795 36.0825 41.9396 37.6418 41.0393C43.6413 37.5756 48.8904 33.5995 52.4235 29.8437C57.5094 24.436 57.3838 21.2346 56.3831 19.5C55.6734 18.2712 54.1063 17.0546 50.6834 17.0546C49.2749 17.0546 47.5514 17.2607 45.4454 17.7566C41.7127 18.6349 37.4004 20.2747 32.9681 22.4833C31.4395 23.2437 29.8968 24.0724 28.3583 24.9606C22.3588 28.4243 17.1097 32.4005 13.5766 36.1562C8.49071 41.5639 8.61632 44.7653 9.61701 46.5ZM15.9846 38.422C19.3028 34.8944 24.284 31.1298 30.0114 27.8237C30.9977 27.2539 31.9851 26.7095 32.9682 26.1948C37.6893 23.7175 42.3014 21.8936 46.2026 20.9744C51.2269 19.7919 53.1852 20.5744 53.5202 21.153C53.8541 21.7316 53.5511 23.8188 50.0157 27.5779C46.6974 31.1055 41.7162 34.8701 35.9888 38.1763C34.9804 38.7581 33.9721 39.3135 32.9681 39.8381C28.269 42.299 23.6812 44.1108 19.7976 45.0254C17.8823 45.4762 16.4132 45.6415 15.3089 45.6415C13.517 45.6415 12.6872 45.205 12.48 44.8469C12.1461 44.2684 12.4492 42.181 15.9846 38.422Z" fill="#0082D2"/>
<path d="M31.0185 31.8417L33.0309 30.6736L33.0364 30.6769L35.0487 31.8318L35.0542 34.1582L33.0419 35.3264L33.0364 35.323L31.024 34.1682L31.0185 31.8417Z" fill="#FF4F18"/>
<path d="M23.7164 33C23.7164 26.0726 24.5353 19.5386 26.0218 14.6003C28.1509 7.52961 30.9678 6.0154 32.968 6V9.30718C32.2804 9.348 30.6515 10.6891 29.188 15.5536C27.7917 20.1909 27.0225 26.3867 27.0225 33C27.0225 39.6133 27.7917 45.8091 29.188 50.4464C30.6515 55.3109 32.2804 56.652 32.968 56.6928V60C30.9678 59.9846 28.1511 58.4704 26.0218 51.3997C24.5352 46.4614 23.7164 39.9274 23.7164 33Z" fill="#49BBED"/>
<path d="M13.5765 36.1562C17.1096 32.4005 22.3587 28.4243 28.3582 24.9606C29.8967 24.0724 31.4395 23.2437 32.968 22.4833V26.1949C31.985 26.7096 30.9975 27.2539 30.0112 27.8238C24.2839 31.1299 19.3026 34.8945 15.9844 38.4221C12.4491 42.1811 12.146 44.2685 12.4799 44.8471C12.687 45.2053 13.5168 45.6417 15.3089 45.6417C16.4131 45.6417 17.8821 45.4764 19.7975 45.0256C23.6811 44.1109 28.2689 42.2992 32.968 39.8384V43.549C28.5576 45.7407 24.2696 47.3695 20.5547 48.2434C13.3296 49.9439 10.6187 48.2345 9.61692 46.5C8.61623 44.7653 8.49062 41.5639 13.5765 36.1562Z" fill="#005C94"/>
<path d="M9.61706 19.5C10.3268 18.2712 11.8939 17.0546 15.3168 17.0546C16.7252 17.0546 18.4477 17.2607 20.5548 17.7566C24.2697 18.6305 28.5578 20.2594 32.9682 22.4513V26.1619C28.2691 23.701 23.6812 21.8893 19.7976 20.9747C14.7746 19.7933 12.8151 20.5746 12.4801 21.1532C12.1462 21.7318 12.4492 23.819 15.9846 27.5782C19.3029 31.1058 24.2841 34.8704 30.0114 38.1765C30.9978 38.7463 31.9852 39.2907 32.9683 39.8054V43.517C31.4397 42.7566 29.8969 41.9279 28.3584 41.0397C25.3587 39.3084 22.5463 37.4481 20.0424 35.5515C17.5386 33.6549 15.3434 31.7219 13.5768 29.8441C8.49076 24.436 8.61637 21.2346 9.61706 19.5Z" fill="#0082D2"/>
<path d="M31.0185 31.8417L33.0309 30.6736H33.0364V35.3231L31.024 34.1682L31.0185 31.8417Z" fill="#FF3400"/>
</svg>
