<svg width="67" height="67" viewBox="0 0 67 67" fill="none" xmlns="http://www.w3.org/2000/svg">
<rect width="67" height="67" rx="10" fill="#546FFF" fill-opacity="0.6"/>
<g clip-path="url(#clip0_15_120)">
<path d="M8 20.582V26.0556H15.8167L8 20.582ZM14.4778 51.0556H26.0556V42.9486L14.4778 51.0556ZM39.9444 42.95V51.0556H51.5208L39.9444 42.95ZM8 39.9445V45.4181L15.8194 39.9445H8ZM51.5236 14.9445H39.9444V23.0514L51.5236 14.9445ZM58 45.4195V39.9445H50.1792L58 45.4195ZM58 26.0556V20.582L50.1819 26.0556H58ZM26.0556 14.9445H14.4778L26.0556 23.0514V14.9445Z" fill="#00247D"/>
<path d="M42.9166 39.9445L56.4055 49.3903C57.0643 48.7116 57.5377 47.8752 57.7805 46.9611L47.7597 39.9445H42.9166ZM26.0555 39.9445H23.0819L9.59441 49.3889C10.318 50.125 11.2458 50.6514 12.2861 50.8959L26.0555 41.2542V39.9445ZM39.9444 26.0556H42.918L56.4055 16.6111C55.6695 15.8643 54.7366 15.3417 53.7152 15.1042L39.9444 24.7459V26.0556ZM23.0819 26.0556L9.59441 16.6111C8.93601 17.2903 8.4622 18.1265 8.21802 19.0403L18.2389 26.0556H23.0819Z" fill="#CF1B2B"/>
<path d="M58 37.1667H37.1667V51.0556H39.9444V42.95L51.5208 51.0556H52.4444C53.1823 51.0557 53.9128 50.9084 54.593 50.6225C55.2732 50.3365 55.8894 49.9176 56.4056 49.3903L42.9167 39.9445H47.7597L57.7806 46.9611C57.9097 46.4931 58 46.0083 58 45.5V45.4195L50.1792 39.9445H58V37.1667ZM8 37.1667V39.9445H15.8194L8 45.4181V45.5C8 47.0153 8.60972 48.3861 9.59444 49.3889L23.0819 39.9445H26.0556V41.2542L12.2861 50.8945C12.6944 50.9917 13.1167 51.0556 13.5556 51.0556H14.4778L26.0556 42.9486V51.0556H28.8333V37.1667H8ZM58 20.5C58.0008 19.0444 57.428 17.6472 56.4056 16.6111L42.9181 26.0556H39.9444V24.7458L53.7153 15.1042C53.2992 15.0021 52.8728 14.9485 52.4444 14.9445H51.5236L39.9444 23.0514V14.9445H37.1667V28.8333H58V26.0556H50.1819L58 20.582V20.5ZM26.0556 14.9445V23.0514L14.4778 14.9445H13.5556C12.8175 14.9441 12.0869 15.0914 11.4066 15.3776C10.7264 15.6639 10.1102 16.0833 9.59444 16.6111L23.0819 26.0556H18.2389L8.21806 19.0403C8.08025 19.5149 8.00691 20.0059 8 20.5V20.582L15.8167 26.0556H8V28.8333H28.8333V14.9445H26.0556Z" fill="#EEEEEE"/>
<path d="M37.1667 28.8333V14.9445H28.8333V28.8333H8V37.1667H28.8333V51.0556H37.1667V37.1667H58V28.8333H37.1667Z" fill="#CF1B2B"/>
</g>
<defs>
<clipPath id="clip0_15_120">
<rect width="50" height="50" fill="white" transform="translate(8 8)"/>
</clipPath>
</defs>
</svg>
