<svg width="67" height="67" viewBox="0 0 67 67" fill="none" xmlns="http://www.w3.org/2000/svg">
<rect width="67" height="67" rx="10" fill="#74D4F2" fill-opacity="0.6"/>
<path d="M10.3125 8.65625C9.31875 8.65625 8.65625 9.31875 8.65625 10.3125V31.8438H31.8438V8.65625H10.3125ZM25.2188 21.9062H21.9062V25.2188C21.9062 26.2125 21.2437 26.875 20.25 26.875C19.2563 26.875 18.5938 26.2125 18.5938 25.2188V21.9062H15.2812C14.2875 21.9062 13.625 21.2437 13.625 20.25C13.625 19.2563 14.2875 18.5938 15.2812 18.5938H18.5938V15.2812C18.5938 14.2875 19.2563 13.625 20.25 13.625C21.2437 13.625 21.9062 14.2875 21.9062 15.2812V18.5938H25.2188C26.2125 18.5938 26.875 19.2563 26.875 20.25C26.875 21.2437 26.2125 21.9062 25.2188 21.9062Z" fill="#FF0000"/>
<path d="M8.65625 35.1562V56.6875C8.65625 57.6812 9.31875 58.3438 10.3125 58.3438H31.8438V35.1562H8.65625ZM24.8875 49.0687C25.55 49.7312 25.55 50.725 24.8875 51.3875C24.5563 51.7187 24.0594 51.8844 23.7281 51.8844C23.3969 51.8844 22.9 51.7187 22.5687 51.3875L20.25 49.0687L17.9312 51.3875C17.6 51.7187 17.1031 51.8844 16.7719 51.8844C16.4406 51.8844 15.9437 51.7187 15.6125 51.3875C14.95 50.725 14.95 49.7312 15.6125 49.0687L17.9312 46.75L15.6125 44.4313C14.95 43.7688 14.95 42.775 15.6125 42.1125C16.275 41.45 17.2688 41.45 17.9312 42.1125L20.25 44.4313L22.5687 42.1125C23.2312 41.45 24.225 41.45 24.8875 42.1125C25.55 42.775 25.55 43.7688 24.8875 44.4313L22.5687 46.75L24.8875 49.0687Z" fill="#D4FF58"/>
<path d="M56.6875 8.65625H35.1562V31.8438H58.3438V10.3125C58.3438 9.31875 57.6812 8.65625 56.6875 8.65625ZM51.7188 21.9062H41.7812C40.7875 21.9062 40.125 21.2437 40.125 20.25C40.125 19.2563 40.7875 18.5938 41.7812 18.5938H51.7188C52.7125 18.5938 53.375 19.2563 53.375 20.25C53.375 21.2437 52.7125 21.9062 51.7188 21.9062Z" fill="#4200FF"/>
<path d="M35.1562 35.1562V58.3438H56.6875C57.6812 58.3438 58.3438 57.6812 58.3438 56.6875V35.1562H35.1562ZM51.7188 51.7188H41.7812C40.7875 51.7188 40.125 51.0562 40.125 50.0625C40.125 49.0688 40.7875 48.4062 41.7812 48.4062H51.7188C52.7125 48.4062 53.375 49.0688 53.375 50.0625C53.375 51.0562 52.7125 51.7188 51.7188 51.7188ZM51.7188 45.0938H41.7812C40.7875 45.0938 40.125 44.4312 40.125 43.4375C40.125 42.4437 40.7875 41.7812 41.7812 41.7812H51.7188C52.7125 41.7812 53.375 42.4437 53.375 43.4375C53.375 44.4312 52.7125 45.0938 51.7188 45.0938Z" fill="#00FF66"/>
</svg>
