<svg width="67" height="67" viewBox="0 0 67 67" fill="none" xmlns="http://www.w3.org/2000/svg">
<rect width="67" height="67" rx="10" fill="#66F29E"/>
<path d="M60 50.5033L59.3885 48.6079L51.784 51.1564L49.2439 48.8627L46.7038 46.5691L48.2875 38.8598L48.3815 38.7483L48.3188 38.6846L48.3345 38.5891L48.1777 38.5572L42.4233 33.3168L42.9564 30.7524L43.8188 26.5792L46.8136 25.5757L47.9112 25.2094C48.507 26.0377 49.4634 26.5474 50.4983 26.5474C51.0627 26.5474 51.6272 26.3881 52.1132 26.1014L56.2369 29.8445L57.5383 28.3632L52.0662 23.3936L51.4077 24.1422C51.1568 24.4289 50.8432 24.5723 50.4826 24.5723C49.9495 24.5723 49.4791 24.2218 49.3066 23.6962C49.2596 23.5529 49.2282 23.4254 49.2282 23.298C49.2282 22.5175 49.9495 21.8963 50.7335 22.0556L51.6899 22.2627L53.1794 14.9676L51.2509 14.5534L50.122 20.0487C49.4477 20.1283 48.7892 20.415 48.2875 20.8928C47.6289 21.514 47.2526 22.3742 47.2526 23.2821V23.298L43.1603 24.6678L40.6202 22.3742L38.0801 20.0805L39.6951 12.1961L39.7108 12.1005L39.554 12.0686L32.8589 6L31.5575 7.48132L37.5314 12.8969L36.1516 19.6504L34.7247 20.1283L29.7073 21.8008L23.7334 16.3852L22.4321 17.8665L28.4059 23.2821L27.6063 27.1845L27.0261 30.0356L24.7683 30.7842L20.5819 32.1859L15.8153 27.8853L14.6237 26.8022L14.5139 26.9137L6 29.7648L6.6115 31.6603L14.216 29.1118L16.6777 31.3417L19.2805 33.6991L18.6533 36.7414L17.885 40.4526L10.2805 43.0012L10.892 44.8966L18.4965 42.3481L23.2787 46.6965L24.2666 47.5885L24.3136 47.7318L24.392 47.7L24.4547 47.7637L24.5645 47.6522L26.2265 47.0947L31.9338 45.1833L36.9983 49.7706L35.6185 56.5242L28.0139 59.0727L28.6254 60.9681L37.1394 58.117L37.2962 58.1489L38.9268 50.1848L45.3711 48.0345L47.9112 50.3281L50.4512 52.6218L48.8206 60.5859L50.7335 61L52.3641 53.0359L60 50.5033ZM24.9094 45.47L23.9373 44.594L19.8449 40.8827L20.6446 36.9962L21.2404 34.1292L22.6672 33.6513L27.6847 31.9789L30.899 34.8937C30.7108 35.3078 30.6167 35.7538 30.6167 36.2158C30.6167 37.3944 31.2439 38.4776 32.2474 39.051L32.0279 40.1341L31.3693 43.3197L28.4216 44.3073L24.9094 45.47ZM30.3659 23.7281L31.7927 23.2502L36.8101 21.5778L39.3502 23.8714L41.8902 26.1651L41.0279 30.402L40.5105 32.9186L36.4181 34.2884C35.8223 33.4602 34.8659 32.9505 33.831 32.9505C33.2666 32.9505 32.7021 33.1098 32.216 33.3965L28.9861 30.4816L29.7857 26.5792L30.3659 23.7281ZM35.0697 36.1998C35.0697 36.9803 34.3328 37.6015 33.5645 37.4422C32.9843 37.3148 32.5767 36.8051 32.5767 36.1998C32.5767 35.8972 32.6864 35.5946 32.9059 35.3556C33.1411 35.0849 33.4704 34.9256 33.831 34.9256C34.3641 34.9256 34.8345 35.276 35.007 35.8016C35.0383 35.9609 35.0697 36.0883 35.0697 36.1998ZM33.2822 43.7179L34.1603 39.4332C34.8502 39.3536 35.493 39.0669 35.9948 38.5731C36.6533 37.9519 37.0296 37.0918 37.0296 36.1839V36.168L41.122 34.7981L46.1864 39.3855L44.8066 46.139L38.3624 48.2893L35.8223 45.9957L33.2822 43.7179Z" fill="white"/>
<path d="M34.5 33C32.5784 33 31 34.3529 31 36C31 37.6471 32.5784 39 34.5 39C36.4387 39 38 37.6471 38 36C38 34.3529 36.4387 33 34.5 33Z" fill="#F1543F"/>
<path d="M50.5 20C48.5649 20 47 21.5649 47 23.5C47 25.4351 48.5649 27 50.5 27C52.4351 27 54 25.4351 54 23.5C54 21.5649 52.4351 20 50.5 20Z" fill="#54C0EB"/>
<path d="M45 44C43.3413 44 42 45.3413 42 47C42 48.6587 43.3413 50 45 50C46.6587 50 48 48.6587 48 47C48 45.3413 46.6587 44 45 44Z" fill="#84DBFF"/>
<path d="M37 18C35.3413 18 34 19.3413 34 21C34 22.6587 35.3413 24 37 24C38.6587 24 40 22.6587 40 21C40 19.3413 38.6587 18 37 18Z" fill="#4CDBC4"/>
</svg>
