<svg width="863" height="377" viewBox="0 0 863 377" fill="none" xmlns="http://www.w3.org/2000/svg">
<path d="M622.75 289.125C611.017 289.125 601.85 286.192 595.25 280.325C588.833 274.458 585.625 265.108 585.625 252.275V158.225H566.65V155.475L573.25 154.375C578.933 153.092 583.792 151.258 587.825 148.875C592.042 146.492 596.167 143.283 600.2 139.25L622.75 114.225H625.5L624.675 152.725H655.475V158.225H624.4V257.225C624.4 263.642 625.775 268.5 628.525 271.8C631.458 275.1 635.125 276.75 639.525 276.75C643.375 276.75 646.767 275.833 649.7 274C652.633 271.983 655.567 269.325 658.5 266.025L661.25 268.775C657.583 275.008 652.542 279.958 646.125 283.625C639.708 287.292 631.917 289.125 622.75 289.125ZM669.865 285V282.25L673.99 281.15C677.657 280.05 680.132 278.4 681.415 276.2C682.882 274 683.615 271.158 683.615 267.675V181.6C683.615 177.567 682.882 174.633 681.415 172.8C680.132 170.783 677.657 169.408 673.99 168.675L669.865 167.575V164.825L717.165 148.875L719.915 151.625L722.39 175.275V177.475C724.957 172.342 728.257 167.667 732.29 163.45C736.507 159.05 741.09 155.475 746.04 152.725C751.174 149.975 756.215 148.6 761.165 148.6C768.132 148.6 773.449 150.525 777.115 154.375C780.782 158.225 782.615 163.083 782.615 168.95C782.615 175.183 780.782 180.042 777.115 183.525C773.632 186.825 769.415 188.475 764.465 188.475C756.765 188.475 749.982 184.625 744.115 176.925L743.565 176.375C741.732 173.808 739.624 172.433 737.24 172.25C734.857 171.883 732.657 172.983 730.64 175.55C728.807 177.2 727.249 179.217 725.965 181.6C724.865 183.8 723.765 186.367 722.665 189.3V266.025C722.665 273.358 725.874 277.942 732.29 279.775L741.09 282.25V285H669.865Z" fill="black"/>
<path d="M824.252 134.3C818.019 134.3 812.702 132.375 808.302 128.525C804.085 124.492 801.977 119.45 801.977 113.4C801.977 107.167 804.085 102.125 808.302 98.275C812.702 94.425 818.019 92.5 824.252 92.5C830.485 92.5 835.71 94.425 839.927 98.275C844.144 102.125 846.252 107.167 846.252 113.4C846.252 119.45 844.144 124.492 839.927 128.525C835.71 132.375 830.485 134.3 824.252 134.3ZM791.802 285V282.25L795.652 281.15C799.319 280.05 801.794 278.4 803.077 276.2C804.544 274 805.277 271.067 805.277 267.4V181.325C805.277 177.475 804.544 174.633 803.077 172.8C801.794 170.783 799.319 169.408 795.652 168.675L791.802 167.85V165.1L842.127 148.875L844.877 151.625L844.052 190.675V267.675C844.052 271.342 844.694 274.275 845.977 276.475C847.444 278.675 849.919 280.325 853.402 281.425L856.152 282.25V285H791.802Z" fill="#FF7223"/>
<path d="M255.525 148.6C267.442 148.6 277.617 151.075 286.05 156.025C294.483 160.792 300.9 167.392 305.3 175.825C309.883 184.075 312.175 193.517 312.175 204.15C312.175 206.167 312.083 208.275 311.9 210.475C311.717 212.492 311.35 214.325 310.8 215.975H228.85C229.033 235.775 232.517 250.075 239.3 258.875C246.267 267.492 256.533 271.8 270.1 271.8C279.267 271.8 286.692 270.333 292.375 267.4C298.058 264.467 303.375 260.158 308.325 254.475L311.075 256.95C305.392 267.033 297.783 274.917 288.25 280.6C278.9 286.283 267.625 289.125 254.425 289.125C241.408 289.125 229.858 286.375 219.775 280.875C209.692 275.192 201.808 267.125 196.125 256.675C190.442 246.225 187.6 233.758 187.6 219.275C187.6 204.242 190.9 191.5 197.5 181.05C204.1 170.417 212.533 162.35 222.8 156.85C233.25 151.35 244.158 148.6 255.525 148.6ZM254.7 154.1C249.383 154.1 244.8 155.75 240.95 159.05C237.283 162.167 234.35 167.85 232.15 176.1C230.133 184.167 229.033 195.625 228.85 210.475H275.875C277.708 190.492 276.975 176.1 273.675 167.3C270.375 158.5 264.05 154.1 254.7 154.1ZM325.88 285V282.25L329.73 281.15C336.147 279.317 339.355 274.825 339.355 267.675V181.6C339.355 177.567 338.713 174.633 337.43 172.8C336.147 170.783 333.672 169.408 330.005 168.675L325.88 167.575V164.825L372.905 148.875L375.655 151.625L377.855 168.125C384.272 162.442 391.513 157.767 399.58 154.1C407.647 150.433 415.622 148.6 423.505 148.6C435.605 148.6 444.863 151.9 451.28 158.5C457.88 165.1 461.18 175.183 461.18 188.75V267.95C461.18 275.1 464.663 279.592 471.63 281.425L474.105 282.25V285H409.205V282.25L412.78 281.15C419.197 279.133 422.405 274.642 422.405 267.675V179.95C422.405 168.217 416.538 162.35 404.805 162.35C396.738 162.35 387.938 166.383 378.405 174.45V267.95C378.405 275.1 381.613 279.592 388.03 281.425L390.505 282.25V285H325.88Z" fill="black"/>
<mask id="mask0_55_17" style="mask-type:alpha" maskUnits="userSpaceOnUse" x="5" y="98" width="172" height="192">
<path d="M100.1 289.95C81.4 289.95 64.9 286.1 50.6 278.4C36.4833 270.517 25.3917 259.425 17.325 245.125C9.44167 230.642 5.5 213.592 5.5 193.975C5.5 174.908 9.44167 158.225 17.325 143.925C25.2083 129.625 36.575 118.533 51.425 110.65C66.4583 102.583 84.6083 98.55 105.875 98.55C115.592 98.55 124.575 99.65 132.825 101.85C141.258 104.05 149.233 107.258 156.75 111.475L157.85 149.975H155.1L139.7 121.375C137.317 116.792 135.117 113.492 133.1 111.475C131.083 109.458 128.517 107.9 125.4 106.8C122.467 105.883 119.717 105.242 117.15 104.875C114.767 104.325 111.558 104.05 107.525 104.05C96.1583 104.05 86.075 107.075 77.275 113.125C68.6583 119.175 61.9667 128.8 57.2 142C52.4333 155.2 50.05 172.525 50.05 193.975C50.05 215.242 52.25 232.567 56.65 245.95C61.2333 259.333 67.65 269.142 75.9 275.375C84.15 281.425 93.6833 284.45 104.5 284.45C106.15 284.45 107.708 284.358 109.175 284.175C110.825 283.808 112.383 283.442 113.85 283.075C117.333 282.525 119.625 281.058 120.725 278.675C121.825 276.292 122.375 273.45 122.375 270.15V215.7C122.375 208.55 118.708 204.15 111.375 202.5L98.725 199.2V196.45H176.275V199.2L172.425 200.3C165.458 202.5 161.975 207.083 161.975 214.05V273.725C152.442 279.042 142.725 283.075 132.825 285.825C123.108 288.575 112.2 289.95 100.1 289.95Z" fill="black"/>
</mask>
<g mask="url(#mask0_55_17)">
<ellipse cx="178.278" cy="181.03" rx="178.278" ry="181.03" transform="matrix(-0.997178 0.0750738 -0.0676039 -0.997712 330.026 334.232)" fill="black"/>
<path d="M-36.2659 180.271C-42.9704 81.3248 30.5414 -4.79146 127.876 -12.1194C225.211 -19.4474 309.587 54.782 316.292 153.729C322.996 252.675 249.484 338.792 152.15 346.119C54.8153 353.447 -29.5614 279.218 -36.2659 180.271Z" stroke="#FF7400" stroke-width="3"/>
<path d="M40.8408 174.466C37.4753 124.797 45.6576 79.0584 61.5318 45.2748C77.4304 11.4395 100.864 -10.0859 127.876 -12.1195C154.887 -14.1531 180.985 3.64328 201.284 34.7533C221.553 65.8159 235.819 109.864 239.184 159.534C242.55 209.203 234.368 254.942 218.493 288.725C202.595 322.56 179.161 344.086 152.15 346.119C125.138 348.153 99.0399 330.357 78.7407 299.247C58.4725 268.184 44.2064 224.136 40.8408 174.466Z" stroke="#FF7400" stroke-width="3"/>
<path d="M-1.99644 177.691C-8.72243 78.4277 49.7481 -6.2377 127.876 -12.1196C206.003 -18.0016 275.296 57.045 282.022 156.308C288.748 255.572 230.277 340.237 152.15 346.119C74.022 352.001 4.72955 276.955 -1.99644 177.691Z" stroke="#FF7400" stroke-width="3"/>
<path d="M149.702 309.997C52.0401 317.349 -30.9339 258.971 -36.2664 180.272C-41.599 101.573 32.6615 31.3569 130.323 24.0043C227.985 16.6518 310.959 75.0302 316.291 153.729C321.624 232.428 247.363 302.644 149.702 309.997Z" stroke="#FF7400" stroke-width="3"/>
<path d="M149.702 309.997C52.0401 317.349 -30.9339 258.971 -36.2664 180.272C-41.599 101.573 32.6615 31.3569 130.323 24.0043C227.985 16.6518 310.959 75.0302 316.291 153.729C321.624 232.428 247.363 302.644 149.702 309.997Z" stroke="#FF7400" stroke-width="3"/>
<path d="M148.478 291.935C99.6845 295.609 54.545 283.858 21.0108 261.961C-12.5221 240.064 -34.3821 208.081 -36.8783 171.241C-39.3746 134.401 -22.0488 99.4677 8.19143 72.77C38.4327 46.0712 81.5298 27.6778 130.323 24.0043C179.116 20.3309 224.256 32.0812 257.79 53.9786C291.323 75.8751 313.183 107.858 315.679 144.698C318.176 181.538 300.85 216.472 270.61 243.17C240.368 269.868 197.271 288.262 148.478 291.935Z" stroke="#FF7400" stroke-width="3"/>
<path d="M147.254 273.874C98.3971 277.552 53.4014 268.55 20.1582 251.102C-13.108 233.641 -34.3972 207.857 -36.4194 178.014C-38.4415 148.171 -20.8448 119.46 9.72947 97.1928C40.2827 74.9414 83.6079 59.2904 132.465 55.6121C181.322 51.9339 226.318 60.9355 259.561 78.3839C292.827 95.8444 314.116 121.628 316.138 151.471C318.16 181.315 300.564 210.026 269.989 232.293C239.436 254.544 196.111 270.195 147.254 273.874Z" stroke="#FF7400" stroke-width="3"/>
<path d="M145.724 251.297C96.8397 254.977 51.9064 247.228 18.7893 231.8C-14.3786 216.348 -35.3788 193.371 -37.1843 166.726C-38.9897 140.08 -21.3007 114.191 9.44721 93.9268C40.1479 73.6941 83.5803 59.2925 132.465 55.6121C181.349 51.9318 226.283 59.6807 259.4 75.1088C292.568 90.5606 313.568 113.538 315.373 140.183C317.179 166.828 299.49 192.718 268.742 212.982C238.041 233.215 194.609 247.616 145.724 251.297Z" stroke="#FF7400" stroke-width="3"/>
<path d="M144.806 237.75C95.8745 241.434 51.0493 235.944 18.1487 224.152C1.69641 218.256 -11.7059 210.807 -21.153 202.203C-30.5923 193.607 -36.0189 183.921 -36.7252 173.498C-37.4315 163.075 -33.3658 152.675 -25.1815 142.751C-16.9903 132.819 -4.72828 123.439 10.7619 115.137C41.7386 98.5363 85.3688 86.3877 134.301 82.7038C183.233 79.0199 228.058 84.509 260.959 96.301C277.411 102.198 290.813 109.646 300.26 118.25C309.7 126.847 315.126 136.532 315.832 146.955C316.539 157.378 312.473 167.778 304.289 177.702C296.098 187.634 283.836 197.015 268.345 205.316C237.369 221.917 193.738 234.066 144.806 237.75Z" stroke="#FF7400" stroke-width="3"/>
<path d="M144.806 237.75C95.8745 241.434 51.0493 235.944 18.1487 224.152C1.69641 218.256 -11.7059 210.807 -21.153 202.203C-30.5923 193.607 -36.0189 183.921 -36.7252 173.498C-37.4315 163.075 -33.3658 152.675 -25.1815 142.751C-16.9903 132.819 -4.72828 123.439 10.7619 115.137C41.7386 98.5363 85.3688 86.3877 134.301 82.7038C183.233 79.0199 228.058 84.509 260.959 96.301C277.411 102.198 290.813 109.646 300.26 118.25C309.7 126.847 315.126 136.532 315.832 146.955C316.539 157.378 312.473 167.778 304.289 177.702C296.098 187.634 283.836 197.015 268.345 205.316C237.369 221.917 193.738 234.066 144.806 237.75Z" stroke="#FF7400" stroke-width="3"/>
<path d="M142.97 210.658C93.9797 214.346 49.2907 211.879 16.6572 204.941C0.330379 201.47 -12.8923 196.897 -22.1154 191.476C-31.3867 186.026 -36.2904 179.924 -36.7258 173.498C-37.1612 167.073 -33.13 160.298 -24.6876 153.515C-16.2891 146.767 -3.81714 140.26 11.8759 134.378C43.2427 122.622 87.1455 113.485 136.136 109.796C185.126 106.108 229.815 108.575 262.449 115.513C278.776 118.984 291.998 123.557 301.221 128.978C310.493 134.428 315.396 140.53 315.832 146.956C316.267 153.381 312.236 160.156 303.794 166.939C295.395 173.687 282.923 180.194 267.23 186.076C235.863 197.832 191.961 206.969 142.97 210.658Z" stroke="#FF7400" stroke-width="3"/>
<path d="M142.97 210.658C93.957 214.348 49.3226 213.142 16.7939 208.232C0.517322 205.774 -12.6449 202.401 -21.7926 198.296C-26.3674 196.243 -29.8646 194.039 -32.2433 191.736C-34.6132 189.44 -35.8027 187.119 -35.9607 184.787C-36.1187 182.456 -35.2543 179.98 -33.2178 177.352C-31.1739 174.716 -28.0094 172.01 -23.7578 169.293C-15.2565 163.859 -2.68264 158.549 13.0974 153.678C44.6337 143.944 88.6525 136.064 137.666 132.374C186.679 128.684 231.314 129.889 263.842 134.8C280.119 137.257 293.281 140.631 302.429 144.736C307.004 146.788 310.501 148.992 312.879 151.296C315.249 153.591 316.439 155.913 316.597 158.244C316.755 160.576 315.89 163.052 313.854 165.679C311.81 168.316 308.646 171.021 304.394 173.739C295.893 179.173 283.319 184.483 267.539 189.354C236.002 199.088 191.984 206.968 142.97 210.658Z" stroke="#FF7400" stroke-width="3"/>
<path d="M141.441 188.081C92.405 191.773 47.8243 191.83 15.3973 188.95C-0.828322 187.509 -13.9401 185.338 -23.0277 182.549C-27.5793 181.152 -31.0317 179.626 -33.3489 178.019C-35.6875 176.397 -36.6331 174.865 -36.7256 173.499C-36.8182 172.133 -36.0888 170.475 -33.9926 168.519C-31.9156 166.581 -28.704 164.553 -24.387 162.488C-15.7677 158.366 -3.0817 154.253 12.7849 150.396C44.4944 142.687 88.6304 136.066 137.666 132.374C186.701 128.682 231.282 128.625 263.709 131.505C279.935 132.946 293.047 135.117 302.134 137.906C306.686 139.303 310.138 140.829 312.455 142.436C314.794 144.058 315.739 145.59 315.832 146.956C315.925 148.322 315.195 149.98 313.099 151.936C311.022 153.874 307.81 155.902 303.493 157.966C294.874 162.089 282.188 166.202 266.321 170.059C234.612 177.768 190.476 184.389 141.441 188.081Z" stroke="#FF7400" stroke-width="3"/>
<path d="M141.44 188.081C92.3829 191.774 47.8552 193.096 15.5276 192.251C-0.645362 191.828 -13.7161 190.865 -22.7596 189.397C-27.2937 188.661 -30.7325 187.811 -33.0245 186.877C-34.1739 186.409 -34.952 185.952 -35.4281 185.54C-35.9008 185.13 -35.9553 184.875 -35.9612 184.787C-35.9671 184.7 -35.9476 184.439 -35.535 183.963C-35.1193 183.483 -34.4107 182.914 -33.3361 182.278C-31.1933 181.011 -27.904 179.654 -23.5151 178.247C-14.7613 175.439 -1.9532 172.527 13.9986 169.686C45.8841 164.007 90.1381 158.644 139.195 154.951C188.252 151.258 232.78 149.936 265.108 150.781C281.281 151.203 294.351 152.167 303.395 153.635C307.929 154.371 311.368 155.22 313.66 156.154C314.809 156.623 315.587 157.08 316.063 157.492C316.536 157.902 316.59 158.157 316.596 158.245C316.602 158.332 316.583 158.593 316.17 159.069C315.754 159.549 315.046 160.118 313.971 160.753C311.829 162.021 308.539 163.378 304.15 164.785C295.397 167.593 282.588 170.505 266.637 173.346C234.751 179.025 190.497 184.388 141.44 188.081Z" stroke="#FF7400" stroke-width="3"/>
<path d="M92.2457 170.596C88.8728 120.819 91.5671 75.3766 98.6185 42.1621C102.146 25.5444 106.747 12.0743 112.166 2.66525C117.618 -6.79976 123.682 -11.8037 130.018 -12.2807C136.354 -12.7577 143.031 -8.71301 149.703 -0.160735C156.336 8.34098 162.706 20.9851 168.439 36.9056C179.897 68.7265 188.691 113.304 192.064 163.081C195.436 212.859 192.742 258.301 185.691 291.515C182.163 308.133 177.562 321.603 172.143 331.012C166.691 340.477 160.628 345.481 154.292 345.958C147.956 346.435 141.279 342.391 134.606 333.838C127.974 325.337 121.603 312.692 115.871 296.772C104.412 264.951 95.6186 220.374 92.2457 170.596Z" stroke="#FF7400" stroke-width="3"/>
<path d="M92.2457 170.596C88.8728 120.819 91.5671 75.3766 98.6185 42.1621C102.146 25.5444 106.747 12.0743 112.166 2.66525C117.618 -6.79976 123.682 -11.8037 130.018 -12.2807C136.354 -12.7577 143.031 -8.71301 149.703 -0.160735C156.336 8.34098 162.706 20.9851 168.439 36.9056C179.897 68.7265 188.691 113.304 192.064 163.081C195.436 212.859 192.742 258.301 185.691 291.515C182.163 308.133 177.562 321.603 172.143 331.012C166.691 340.477 160.628 345.481 154.292 345.958C147.956 346.435 141.279 342.391 134.606 333.838C127.974 325.337 121.603 312.692 115.871 296.772C104.412 264.951 95.6186 220.374 92.2457 170.596Z" stroke="#FF7400" stroke-width="3"/>
<path d="M126.515 168.016C123.138 118.176 122.239 72.9154 123.51 40.0359C124.146 23.5865 125.323 10.2871 126.991 1.07728C127.828 -3.53982 128.773 -7.0441 129.795 -9.38397C130.306 -10.5562 130.804 -11.3559 131.254 -11.8507C131.7 -12.3393 132.002 -12.4301 132.159 -12.4419C132.316 -12.4537 132.628 -12.4092 133.135 -11.9923C133.648 -11.57 134.248 -10.8529 134.912 -9.76926C136.239 -7.60621 137.647 -4.2791 139.098 0.165841C141.991 9.03223 144.949 22.0203 147.797 38.2074C153.488 70.5628 158.7 115.499 162.077 165.339C165.454 215.179 166.354 260.44 165.083 293.319C164.447 309.769 163.269 323.068 161.601 332.278C160.765 336.895 159.82 340.399 158.798 342.739C158.286 343.911 157.789 344.711 157.338 345.206C156.893 345.694 156.59 345.785 156.433 345.797C156.276 345.809 155.964 345.764 155.458 345.347C154.945 344.925 154.345 344.208 153.68 343.124C152.353 340.961 150.945 337.634 149.495 333.189C146.602 324.323 143.643 311.335 140.796 295.148C135.105 262.792 129.892 217.856 126.515 168.016Z" stroke="#FF7400" stroke-width="3"/>
</g>
<ellipse cx="22.2183" cy="22.5613" rx="22.2183" ry="22.5613" transform="matrix(-0.997178 0.0750738 -0.0676039 -0.997712 545 282.095)" fill="black"/>
<path d="M500.659 262.809C499.871 251.182 508.507 241.098 519.895 240.241C531.284 239.383 541.191 248.071 541.979 259.698C542.767 271.325 534.131 281.409 522.743 282.267C511.354 283.124 501.447 274.436 500.659 262.809Z" stroke="#FF8E4F" stroke-opacity="0.49" stroke-width="3"/>
<path d="M510.269 262.086C509.862 256.076 510.859 250.607 512.725 246.635C514.615 242.612 517.218 240.442 519.895 240.241C522.573 240.039 525.441 241.797 527.855 245.496C530.238 249.148 531.962 254.412 532.369 260.422C532.776 266.431 531.779 271.901 529.913 275.872C528.023 279.895 525.42 282.065 522.743 282.267C520.065 282.468 517.197 280.71 514.783 277.011C512.401 273.36 510.676 268.095 510.269 262.086Z" stroke="#FF8E4F" stroke-opacity="0.49" stroke-width="3"/>
<path d="M504.93 262.488C504.121 250.544 511.146 240.899 519.895 240.241C528.645 239.582 536.899 248.076 537.708 260.02C538.517 271.964 531.492 281.608 522.743 282.267C513.993 282.926 505.74 274.431 504.93 262.488Z" stroke="#FF8E4F" stroke-opacity="0.49" stroke-width="3"/>
<path d="M522.438 277.765C510.722 278.647 501.259 271.652 500.659 262.809C500.06 253.966 508.485 245.625 520.2 244.743C531.916 243.861 541.38 250.855 541.979 259.698C542.578 268.542 534.154 276.883 522.438 277.765Z" stroke="#FF8E4F" stroke-opacity="0.49" stroke-width="3"/>
<path d="M522.438 277.765C510.722 278.647 501.259 271.652 500.659 262.809C500.06 253.966 508.485 245.625 520.2 244.743C531.916 243.861 541.38 250.855 541.979 259.698C542.578 268.542 534.154 276.883 522.438 277.765Z" stroke="#FF8E4F" stroke-opacity="0.49" stroke-width="3"/>
<path d="M522.285 275.514C516.465 275.952 511.13 274.545 507.211 271.987C503.294 269.429 500.861 265.779 500.583 261.684C500.306 257.589 502.222 253.611 505.755 250.493C509.288 247.373 514.38 245.181 520.2 244.743C526.021 244.304 531.356 245.711 535.275 248.27C539.192 250.828 541.625 254.478 541.903 258.573C542.18 262.668 540.264 266.645 536.731 269.764C533.197 272.884 528.106 275.076 522.285 275.514Z" stroke="#FF8E4F" stroke-opacity="0.49" stroke-width="3"/>
<path d="M522.133 273.263C516.249 273.706 510.892 272.615 506.998 270.571C503.081 268.515 500.85 265.629 500.64 262.528C500.43 259.426 502.249 256.236 505.849 253.614C509.428 251.008 514.583 249.125 520.467 248.682C526.351 248.239 531.708 249.33 535.602 251.374C539.519 253.43 541.75 256.316 541.96 259.417C542.17 262.519 540.351 265.709 536.751 268.331C533.172 270.937 528.017 272.82 522.133 273.263Z" stroke="#FF8E4F" stroke-opacity="0.49" stroke-width="3"/>
<path d="M521.942 270.449C516.031 270.894 510.662 269.95 506.772 268.138C502.832 266.302 500.723 263.753 500.545 261.121C500.366 258.488 502.11 255.65 505.763 253.243C509.369 250.866 514.556 249.127 520.467 248.682C526.379 248.237 531.748 249.182 535.637 250.993C539.577 252.829 541.686 255.378 541.865 258.01C542.043 260.643 540.299 263.481 536.646 265.889C533.041 268.265 527.854 270.004 521.942 270.449Z" stroke="#FF8E4F" stroke-opacity="0.49" stroke-width="3"/>
<path d="M521.828 268.761C515.869 269.21 510.473 268.534 506.582 267.139C504.635 266.441 503.132 265.588 502.121 264.666C501.117 263.752 500.661 262.838 500.602 261.965C500.543 261.092 500.871 260.119 501.741 259.064C502.618 258 503.99 256.93 505.824 255.947C509.487 253.984 514.737 252.507 520.696 252.058C526.655 251.61 532.051 252.285 535.942 253.68C537.889 254.378 539.392 255.232 540.403 256.153C541.407 257.067 541.863 257.982 541.922 258.854C541.981 259.727 541.653 260.7 540.783 261.756C539.906 262.819 538.534 263.889 536.7 264.872C533.037 266.835 527.787 268.312 521.828 268.761Z" stroke="#FF8E4F" stroke-opacity="0.49" stroke-width="3"/>
<path d="M521.828 268.761C515.869 269.21 510.473 268.534 506.582 267.139C504.635 266.441 503.132 265.588 502.121 264.666C501.117 263.752 500.661 262.838 500.602 261.965C500.543 261.092 500.871 260.119 501.741 259.064C502.618 258 503.99 256.93 505.824 255.947C509.487 253.984 514.737 252.507 520.696 252.058C526.655 251.61 532.051 252.285 535.942 253.68C537.889 254.378 539.392 255.232 540.403 256.153C541.407 257.067 541.863 257.982 541.922 258.854C541.981 259.727 541.653 260.7 540.783 261.756C539.906 262.819 538.534 263.889 536.7 264.872C533.037 266.835 527.787 268.312 521.828 268.761Z" stroke="#FF8E4F" stroke-opacity="0.49" stroke-width="3"/>
<path d="M521.599 265.385C515.582 265.838 510.142 265.529 506.227 264.697C504.26 264.279 502.764 263.746 501.784 263.17C500.756 262.566 500.612 262.114 500.602 261.965C500.592 261.816 500.674 261.347 501.61 260.595C502.502 259.878 503.911 259.127 505.802 258.418C509.565 257.008 514.907 255.888 520.925 255.435C526.942 254.982 532.382 255.29 536.296 256.122C538.264 256.54 539.76 257.073 540.739 257.649C541.768 258.254 541.912 258.705 541.922 258.854C541.932 259.003 541.85 259.472 540.914 260.224C540.022 260.941 538.613 261.692 536.722 262.401C532.959 263.811 527.616 264.932 521.599 265.385Z" stroke="#FF8E4F" stroke-opacity="0.49" stroke-width="3"/>
<path d="M521.599 265.385C515.559 265.839 510.099 265.687 506.168 265.093C504.19 264.795 502.682 264.396 501.698 263.955C501.205 263.733 500.916 263.533 500.767 263.389C500.76 263.382 500.753 263.375 500.746 263.368C500.752 263.361 500.758 263.353 500.764 263.345C500.892 263.18 501.151 262.938 501.609 262.645C502.524 262.06 503.963 261.44 505.88 260.849C509.691 259.672 515.075 258.703 521.115 258.248C527.156 257.794 532.616 257.946 536.547 258.54C538.524 258.838 540.032 259.237 541.016 259.678C541.51 259.9 541.798 260.1 541.947 260.244C541.954 260.251 541.961 260.258 541.968 260.265C541.962 260.272 541.956 260.28 541.95 260.289C541.822 260.453 541.564 260.695 541.105 260.988C540.19 261.573 538.752 262.193 536.834 262.784C533.023 263.961 527.639 264.93 521.599 265.385ZM500.677 263.283C500.677 263.283 500.678 263.284 500.679 263.287C500.677 263.284 500.677 263.283 500.677 263.283ZM500.691 263.458C500.69 263.462 500.689 263.463 500.689 263.463C500.689 263.463 500.689 263.462 500.691 263.458ZM542.038 260.35C542.038 260.35 542.037 260.349 542.035 260.346C542.037 260.349 542.038 260.35 542.038 260.35ZM542.024 260.175C542.025 260.172 542.025 260.17 542.025 260.17C542.026 260.17 542.025 260.171 542.024 260.175Z" stroke="#FF8E4F" stroke-opacity="0.49" stroke-width="3"/>
<path d="M521.408 262.571C515.346 263.027 509.865 263.032 505.914 262.681C503.927 262.504 502.398 262.244 501.393 261.935C501.367 261.927 501.341 261.919 501.316 261.911C501.34 261.9 501.364 261.888 501.389 261.876C502.342 261.42 503.82 260.933 505.764 260.461C509.627 259.522 515.053 258.705 521.115 258.248C527.178 257.792 532.659 257.788 536.609 258.139C538.597 258.315 540.126 258.576 541.131 258.884C541.157 258.892 541.182 258.9 541.207 258.908C541.184 258.92 541.16 258.931 541.135 258.943C540.182 259.399 538.703 259.886 536.76 260.358C532.897 261.298 527.471 262.115 521.408 262.571ZM500.419 261.509C500.419 261.509 500.422 261.511 500.428 261.517C500.421 261.511 500.419 261.509 500.419 261.509ZM500.49 262.435C500.485 262.441 500.482 262.444 500.482 262.444C500.482 262.444 500.484 262.441 500.49 262.435ZM542.105 259.311C542.105 259.311 542.101 259.308 542.096 259.303C542.102 259.308 542.105 259.311 542.105 259.311ZM542.034 258.384C542.038 258.378 542.041 258.375 542.041 258.375C542.042 258.375 542.039 258.378 542.034 258.384Z" stroke="#FF8E4F" stroke-opacity="0.49" stroke-width="3"/>
<mask id="path-36-inside-1_55_17" fill="white">
<ellipse cx="2.25613" cy="22.2183" rx="2.25613" ry="22.2183" transform="matrix(0.0676039 0.997712 -0.997178 0.0750738 543.36 257.898)"/>
</mask>
<path d="M521.307 261.074C515.257 261.53 509.807 261.689 505.899 261.587C503.927 261.536 502.445 261.419 501.503 261.267C501.008 261.186 500.824 261.12 500.83 261.123C500.845 261.129 500.894 261.15 500.967 261.191C501.037 261.23 501.16 261.306 501.303 261.43C501.573 261.664 502.126 262.266 502.193 263.259L496.21 263.71C496.288 264.859 496.928 265.608 497.36 265.982C497.784 266.35 498.233 266.563 498.534 266.686C499.151 266.937 499.857 267.088 500.501 267.193C501.838 267.41 503.633 267.534 505.698 267.588C509.865 267.697 515.526 267.526 521.712 267.061L521.307 261.074ZM502.193 263.259C502.26 264.253 501.795 264.931 501.559 265.203C501.434 265.348 501.322 265.441 501.258 265.491C501.192 265.542 501.145 265.57 501.132 265.578C501.126 265.582 501.299 265.489 501.779 265.335C502.69 265.043 504.142 264.706 506.087 264.359C509.941 263.673 515.357 263.014 521.407 262.559L521.002 256.572C514.816 257.038 509.188 257.717 505.079 258.449C503.042 258.812 501.282 259.204 499.988 259.619C499.364 259.819 498.686 260.075 498.109 260.416C497.828 260.583 497.412 260.861 497.042 261.288C496.665 261.723 496.132 262.561 496.21 263.71L502.193 263.259ZM521.407 262.559C527.458 262.103 532.908 261.944 536.815 262.046C538.787 262.098 540.269 262.214 541.211 262.366C541.707 262.447 541.89 262.513 541.884 262.51C541.87 262.504 541.82 262.484 541.747 262.442C541.677 262.403 541.554 262.327 541.411 262.203C541.141 261.969 540.589 261.368 540.521 260.374L546.504 259.923C546.426 258.774 545.786 258.025 545.355 257.651C544.93 257.283 544.481 257.07 544.18 256.948C543.563 256.696 542.857 256.545 542.213 256.44C540.876 256.223 539.081 256.099 537.016 256.045C532.85 255.936 527.188 256.107 521.002 256.572L521.407 262.559ZM540.521 260.374C540.454 259.38 540.92 258.702 541.155 258.43C541.28 258.286 541.392 258.192 541.456 258.142C541.522 258.091 541.569 258.063 541.582 258.055C541.588 258.051 541.415 258.144 540.935 258.298C540.024 258.59 538.573 258.927 536.627 259.274C532.773 259.96 527.357 260.619 521.307 261.074L521.712 267.061C527.899 266.595 533.526 265.916 537.635 265.184C539.672 264.821 541.432 264.429 542.727 264.014C543.35 263.814 544.028 263.558 544.605 263.217C544.887 263.05 545.302 262.772 545.673 262.345C546.049 261.91 546.582 261.072 546.504 259.923L540.521 260.374Z" fill="#FF8E4F" fill-opacity="0.49" mask="url(#path-36-inside-1_55_17)"/>
<path d="M516.675 261.603C516.261 255.486 516.597 249.949 517.444 245.96C517.87 243.954 518.407 242.426 518.984 241.423C519.594 240.364 520.039 240.23 520.162 240.221C520.285 240.211 520.744 240.277 521.49 241.234C522.197 242.141 522.935 243.573 523.627 245.494C525.003 249.316 526.082 254.746 526.497 260.864C526.911 266.982 526.575 272.518 525.728 276.508C525.303 278.513 524.765 280.041 524.188 281.044C523.578 282.103 523.133 282.238 523.01 282.247C522.887 282.256 522.428 282.19 521.682 281.233C520.975 280.327 520.237 278.895 519.545 276.973C518.169 273.151 517.09 267.721 516.675 261.603Z" stroke="#FF8E4F" stroke-opacity="0.49" stroke-width="3"/>
<path d="M516.675 261.603C516.261 255.486 516.597 249.949 517.444 245.96C517.87 243.954 518.407 242.426 518.984 241.423C519.594 240.364 520.039 240.23 520.162 240.221C520.285 240.211 520.744 240.277 521.49 241.234C522.197 242.141 522.935 243.573 523.627 245.494C525.003 249.316 526.082 254.746 526.497 260.864C526.911 266.982 526.575 272.518 525.728 276.508C525.303 278.513 524.765 280.041 524.188 281.044C523.578 282.103 523.133 282.238 523.01 282.247C522.887 282.256 522.428 282.19 521.682 281.233C520.975 280.327 520.237 278.895 519.545 276.973C518.169 273.151 517.09 267.721 516.675 261.603Z" stroke="#FF8E4F" stroke-opacity="0.49" stroke-width="3"/>
<mask id="path-40-inside-2_55_17" fill="white">
<ellipse cx="2.40921" cy="22.5613" rx="2.40921" ry="22.5613" transform="matrix(-0.997178 0.0750738 -0.0676039 -0.997712 525.781 283.542)"/>
</mask>
<path d="M522.442 261.169C522.026 255.025 521.918 249.488 522.072 245.518C522.149 243.514 522.29 242.011 522.463 241.057C522.553 240.556 522.625 240.373 522.621 240.383C522.62 240.383 522.534 240.594 522.299 240.852C522.052 241.123 521.464 241.627 520.531 241.697L520.125 235.711C519.025 235.793 518.279 236.388 517.881 236.825C517.495 237.249 517.265 237.701 517.129 238.012C516.852 238.645 516.682 239.369 516.562 240.029C516.315 241.397 516.161 243.229 516.08 245.331C515.916 249.573 516.033 255.332 516.459 261.62L522.442 261.169ZM520.531 241.697C519.597 241.767 518.947 241.357 518.667 241.126C518.399 240.905 518.285 240.709 518.285 240.709C518.279 240.7 518.374 240.871 518.532 241.353C518.831 242.271 519.173 243.738 519.52 245.711C520.207 249.617 520.848 255.114 521.264 261.258L527.247 260.807C526.821 254.52 526.161 248.802 525.426 244.627C525.062 242.558 524.663 240.768 524.234 239.451C524.026 238.816 523.76 238.125 523.401 237.54C523.224 237.252 522.935 236.839 522.496 236.477C522.043 236.105 521.225 235.628 520.125 235.711L520.531 241.697ZM521.264 261.258C521.68 267.402 521.788 272.939 521.634 276.909C521.557 278.913 521.416 280.416 521.243 281.37C521.152 281.871 521.081 282.054 521.085 282.044C521.085 282.044 521.172 281.833 521.407 281.575C521.654 281.304 522.242 280.8 523.175 280.73L523.581 286.716C524.681 286.634 525.427 286.039 525.825 285.602C526.211 285.178 526.441 284.726 526.577 284.415C526.854 283.782 527.024 283.058 527.144 282.398C527.391 281.03 527.545 279.198 527.626 277.096C527.79 272.854 527.673 267.095 527.247 260.807L521.264 261.258ZM523.175 280.73C524.109 280.66 524.759 281.07 525.039 281.301C525.307 281.522 525.421 281.718 525.421 281.718C525.427 281.727 525.332 281.556 525.174 281.074C524.875 280.156 524.533 278.689 524.186 276.716C523.499 272.81 522.858 267.314 522.442 261.169L516.459 261.62C516.885 267.907 517.545 273.625 518.28 277.8C518.643 279.869 519.043 281.659 519.472 282.976C519.679 283.611 519.946 284.302 520.305 284.887C520.482 285.175 520.771 285.588 521.21 285.95C521.663 286.322 522.481 286.799 523.581 286.716L523.175 280.73Z" fill="#FF8E4F" fill-opacity="0.49" mask="url(#path-40-inside-2_55_17)"/>
<ellipse cx="23.2989" cy="23.6587" rx="23.2989" ry="23.6587" transform="matrix(-0.997178 0.0750738 -0.0676039 -0.997712 545.324 245.502)" fill="black"/>
<path d="M498.754 225.283C497.925 213.051 507.009 202.441 518.993 201.538C530.977 200.636 541.4 209.778 542.229 222.01C543.057 234.241 533.973 244.852 521.989 245.754C510.005 246.657 499.583 237.515 498.754 225.283Z" stroke="#FF8E4F" stroke-opacity="0.49" stroke-width="3"/>
<path d="M508.831 224.524C508.403 218.212 509.45 212.464 511.413 208.286C513.401 204.057 516.147 201.753 518.993 201.538C521.839 201.324 524.869 203.193 527.406 207.082C529.912 210.924 531.724 216.457 532.152 222.768C532.579 229.08 531.532 234.828 529.569 239.006C527.582 243.236 524.835 245.54 521.989 245.754C519.143 245.969 516.114 244.099 513.576 240.21C511.07 236.369 509.258 230.836 508.831 224.524Z" stroke="#FF8E4F" stroke-opacity="0.49" stroke-width="3"/>
<path d="M503.232 224.946C502.382 212.397 509.763 202.233 518.993 201.538C528.223 200.843 536.9 209.799 537.75 222.347C538.6 234.895 531.219 245.059 521.989 245.754C512.759 246.449 504.083 237.494 503.232 224.946Z" stroke="#FF8E4F" stroke-opacity="0.49" stroke-width="3"/>
<path d="M521.669 241.033C509.359 241.96 499.386 234.61 498.754 225.283C498.122 215.956 507.002 207.186 519.313 206.259C531.624 205.332 541.597 212.683 542.229 222.01C542.861 231.337 533.98 240.107 521.669 241.033Z" stroke="#FF8E4F" stroke-opacity="0.49" stroke-width="3"/>
<path d="M521.669 241.033C509.359 241.96 499.386 234.61 498.754 225.283C498.122 215.956 507.002 207.186 519.313 206.259C531.624 205.332 541.597 212.683 542.229 222.01C542.861 231.337 533.98 240.107 521.669 241.033Z" stroke="#FF8E4F" stroke-opacity="0.49" stroke-width="3"/>
<path d="M521.509 238.673C515.392 239.134 509.78 237.655 505.657 234.962C501.534 232.27 498.967 228.424 498.674 224.103C498.381 219.781 500.404 215.589 504.122 212.307C507.84 209.024 513.195 206.72 519.313 206.259C525.431 205.799 531.042 207.277 535.166 209.97C539.288 212.662 541.856 216.508 542.149 220.83C542.442 225.151 540.419 229.343 536.701 232.625C532.982 235.908 527.627 238.212 521.509 238.673Z" stroke="#FF8E4F" stroke-opacity="0.49" stroke-width="3"/>
<path d="M521.349 236.313C515.168 236.778 509.537 235.632 505.439 233.481C501.319 231.318 498.956 228.275 498.734 224.988C498.511 221.701 500.439 218.334 504.226 215.576C507.992 212.834 513.411 210.856 519.593 210.39C525.774 209.925 531.405 211.071 535.503 213.222C539.623 215.384 541.986 218.428 542.209 221.715C542.431 225.001 540.503 228.368 536.716 231.126C532.95 233.869 527.531 235.847 521.349 236.313Z" stroke="#FF8E4F" stroke-opacity="0.49" stroke-width="3"/>
<path d="M521.149 233.362C514.94 233.829 509.297 232.838 505.206 230.931C501.063 229.001 498.823 226.311 498.634 223.513C498.444 220.714 500.298 217.715 504.139 215.185C507.932 212.685 513.384 210.858 519.593 210.39C525.802 209.923 531.445 210.915 535.537 212.821C539.679 214.751 541.919 217.441 542.109 220.24C542.298 223.038 540.444 226.037 536.604 228.568C532.811 231.067 527.359 232.895 521.149 233.362Z" stroke="#FF8E4F" stroke-opacity="0.49" stroke-width="3"/>
<path d="M521.03 231.591C514.773 232.063 509.104 231.353 505.012 229.887C502.964 229.153 501.38 228.254 500.31 227.279C499.247 226.312 498.757 225.336 498.694 224.398C498.63 223.459 498.984 222.42 499.905 221.303C500.832 220.178 502.28 219.051 504.208 218.018C508.061 215.953 513.576 214.402 519.833 213.931C526.089 213.46 531.758 214.169 535.85 215.635C537.898 216.369 539.483 217.269 540.553 218.243C541.615 219.211 542.105 220.186 542.169 221.125C542.232 222.063 541.879 223.102 540.958 224.219C540.03 225.344 538.583 226.471 536.654 227.505C532.802 229.569 527.286 231.12 521.03 231.591Z" stroke="#FF8E4F" stroke-opacity="0.49" stroke-width="3"/>
<path d="M521.03 231.591C514.773 232.063 509.104 231.353 505.012 229.887C502.964 229.153 501.38 228.254 500.31 227.279C499.247 226.312 498.757 225.336 498.694 224.398C498.63 223.459 498.984 222.42 499.905 221.303C500.832 220.178 502.28 219.051 504.208 218.018C508.061 215.953 513.576 214.402 519.833 213.931C526.089 213.46 531.758 214.169 535.85 215.635C537.898 216.369 539.483 217.269 540.553 218.243C541.615 219.211 542.105 220.186 542.169 221.125C542.232 222.063 541.879 223.102 540.958 224.219C540.03 225.344 538.583 226.471 536.654 227.505C532.802 229.569 527.286 231.12 521.03 231.591Z" stroke="#FF8E4F" stroke-opacity="0.49" stroke-width="3"/>
<path d="M520.79 228.051C514.475 228.526 508.763 228.203 504.65 227.328C502.583 226.889 501.006 226.328 499.969 225.719C498.884 225.081 498.707 224.59 498.694 224.398C498.681 224.205 498.79 223.693 499.778 222.899C500.722 222.14 502.208 221.349 504.194 220.604C508.148 219.123 513.758 217.947 520.073 217.471C526.388 216.996 532.099 217.319 536.213 218.194C538.279 218.633 539.856 219.194 540.893 219.804C541.979 220.441 542.156 220.932 542.169 221.125C542.182 221.317 542.073 221.829 541.084 222.623C540.14 223.382 538.655 224.173 536.668 224.918C532.714 226.4 527.105 227.575 520.79 228.051Z" stroke="#FF8E4F" stroke-opacity="0.49" stroke-width="3"/>
<path d="M520.79 228.051C514.452 228.528 508.721 228.368 504.592 227.745C502.515 227.431 500.927 227.012 499.885 226.545C499.364 226.311 499.053 226.097 498.889 225.938C498.862 225.912 498.841 225.889 498.825 225.871C498.838 225.85 498.856 225.825 498.879 225.794C499.02 225.612 499.299 225.354 499.784 225.044C500.751 224.426 502.267 223.773 504.28 223.152C508.283 221.916 513.935 220.899 520.273 220.422C526.611 219.945 532.342 220.105 536.471 220.728C538.547 221.042 540.136 221.461 541.177 221.928C541.698 222.162 542.009 222.376 542.173 222.535C542.201 222.561 542.221 222.584 542.237 222.602C542.224 222.623 542.206 222.648 542.183 222.679C542.042 222.861 541.763 223.119 541.279 223.429C540.311 224.047 538.795 224.7 536.782 225.321C532.779 226.557 527.127 227.574 520.79 228.051ZM498.779 225.806C498.779 225.806 498.78 225.808 498.782 225.812C498.78 225.808 498.779 225.806 498.779 225.806ZM498.79 225.935C498.789 225.939 498.789 225.941 498.788 225.941C498.788 225.942 498.789 225.939 498.79 225.935ZM542.283 222.667C542.283 222.667 542.282 222.665 542.28 222.661C542.282 222.665 542.283 222.667 542.283 222.667ZM542.272 222.538C542.273 222.534 542.274 222.532 542.274 222.532C542.274 222.532 542.274 222.534 542.272 222.538Z" stroke="#FF8E4F" stroke-opacity="0.49" stroke-width="3"/>
<path d="M520.59 225.1C514.23 225.579 508.478 225.584 504.33 225.215C502.244 225.03 500.635 224.756 499.574 224.431C499.485 224.404 499.403 224.377 499.326 224.35C499.398 224.313 499.476 224.274 499.561 224.233C500.567 223.752 502.123 223.24 504.163 222.744C508.219 221.758 513.913 220.901 520.273 220.422C526.633 219.943 532.385 219.939 536.532 220.307C538.618 220.492 540.228 220.766 541.288 221.092C541.377 221.119 541.46 221.146 541.536 221.172C541.464 221.21 541.386 221.249 541.302 221.289C540.296 221.77 538.739 222.283 536.7 222.778C532.644 223.764 526.95 224.622 520.59 225.1ZM498.525 223.968C498.526 223.968 498.529 223.971 498.534 223.976C498.528 223.971 498.525 223.968 498.525 223.968ZM498.593 224.839C498.588 224.845 498.585 224.849 498.585 224.849C498.585 224.849 498.587 224.845 498.593 224.839ZM542.337 221.555C542.337 221.555 542.333 221.552 542.328 221.546C542.335 221.552 542.337 221.555 542.337 221.555ZM542.27 220.683C542.274 220.677 542.277 220.674 542.277 220.674C542.278 220.674 542.275 220.677 542.27 220.683Z" stroke="#FF8E4F" stroke-opacity="0.49" stroke-width="3"/>
<mask id="path-56-inside-3_55_17" fill="white">
<ellipse cx="2.36587" cy="23.2989" rx="2.36587" ry="23.2989" transform="matrix(0.0676039 0.997712 -0.997178 0.0750738 543.604 220.127)"/>
</mask>
<path d="M520.488 223.604C514.14 224.082 508.42 224.249 504.316 224.142C502.246 224.088 500.684 223.966 499.687 223.804C499.446 223.765 499.261 223.727 499.126 223.694C498.984 223.659 498.935 223.638 498.95 223.644C498.961 223.649 499.007 223.668 499.077 223.707C499.144 223.745 499.265 223.82 499.406 223.942C499.672 224.173 500.222 224.77 500.289 225.76L494.306 226.211C494.384 227.364 495.027 228.116 495.462 228.494C495.891 228.865 496.345 229.081 496.654 229.207C497.285 229.464 498.013 229.621 498.685 229.73C500.077 229.956 501.952 230.086 504.115 230.143C508.478 230.257 514.41 230.078 520.894 229.59L520.488 223.604ZM500.289 225.76C500.357 226.75 499.892 227.424 499.66 227.693C499.537 227.835 499.427 227.927 499.366 227.974C499.302 228.024 499.259 228.05 499.249 228.055C499.235 228.064 499.28 228.036 499.416 227.98C499.546 227.927 499.724 227.862 499.957 227.787C500.922 227.478 502.452 227.123 504.494 226.759C508.541 226.038 514.226 225.347 520.574 224.869L520.168 218.883C513.685 219.371 507.789 220.083 503.486 220.849C501.352 221.229 499.514 221.639 498.166 222.071C497.516 222.28 496.817 222.544 496.226 222.893C495.937 223.064 495.517 223.346 495.143 223.778C494.763 224.217 494.228 225.058 494.306 226.211L500.289 225.76ZM520.574 224.869C526.922 224.391 532.642 224.224 536.746 224.331C538.816 224.385 540.378 224.507 541.375 224.669C541.616 224.708 541.801 224.746 541.937 224.779C542.079 224.814 542.127 224.835 542.112 224.828C542.102 224.824 542.055 224.805 541.985 224.765C541.918 224.728 541.798 224.653 541.656 224.531C541.39 224.3 540.84 223.702 540.773 222.713L546.756 222.262C546.678 221.109 546.035 220.356 545.6 219.979C545.171 219.608 544.717 219.392 544.408 219.266C543.777 219.009 543.049 218.852 542.377 218.743C540.985 218.517 539.11 218.386 536.947 218.33C532.584 218.216 526.652 218.395 520.168 218.883L520.574 224.869ZM540.773 222.713C540.706 221.723 541.17 221.048 541.402 220.78C541.525 220.638 541.635 220.546 541.696 220.499C541.76 220.449 541.803 220.423 541.813 220.417C541.827 220.409 541.782 220.437 541.646 220.492C541.517 220.546 541.339 220.611 541.105 220.686C540.14 220.995 538.611 221.35 536.569 221.714C532.521 222.435 526.836 223.126 520.488 223.604L520.894 229.59C527.377 229.102 533.273 228.39 537.577 227.624C539.71 227.244 541.549 226.834 542.896 226.401C543.546 226.193 544.246 225.929 544.836 225.58C545.125 225.409 545.545 225.127 545.919 224.695C546.3 224.256 546.834 223.415 546.756 222.262L540.773 222.713Z" fill="#FF8E4F" fill-opacity="0.49" mask="url(#path-56-inside-3_55_17)"/>
<path d="M515.549 224.018C515.114 217.598 515.466 211.786 516.356 207.594C516.803 205.487 517.369 203.876 517.98 202.815C518.623 201.698 519.107 201.53 519.273 201.517C519.439 201.505 519.941 201.598 520.728 202.608C521.476 203.567 522.253 205.077 522.98 207.095C524.426 211.111 525.558 216.812 525.993 223.232C526.428 229.652 526.076 235.465 525.186 239.657C524.739 241.763 524.174 243.374 523.562 244.436C522.919 245.553 522.435 245.721 522.269 245.733C522.103 245.746 521.602 245.652 520.814 244.642C520.066 243.683 519.289 242.174 518.563 240.156C517.116 236.139 515.984 230.439 515.549 224.018Z" stroke="#FF8E4F" stroke-opacity="0.49" stroke-width="3"/>
<path d="M515.549 224.018C515.114 217.598 515.466 211.786 516.356 207.594C516.803 205.487 517.369 203.876 517.98 202.815C518.623 201.698 519.107 201.53 519.273 201.517C519.439 201.505 519.941 201.598 520.728 202.608C521.476 203.567 522.253 205.077 522.98 207.095C524.426 211.111 525.558 216.812 525.993 223.232C526.428 229.652 526.076 235.465 525.186 239.657C524.739 241.763 524.174 243.374 523.562 244.436C522.919 245.553 522.435 245.721 522.269 245.733C522.103 245.746 521.602 245.652 520.814 244.642C520.066 243.683 519.289 242.174 518.563 240.156C517.116 236.139 515.984 230.439 515.549 224.018Z" stroke="#FF8E4F" stroke-opacity="0.49" stroke-width="3"/>
<mask id="path-60-inside-4_55_17" fill="white">
<ellipse cx="2.52639" cy="23.6587" rx="2.52639" ry="23.6587" transform="matrix(-0.997178 0.0750738 -0.0676039 -0.997712 525.17 247.019)"/>
</mask>
<path d="M521.523 223.569C521.086 217.122 520.974 211.311 521.135 207.141C521.216 205.037 521.364 203.453 521.547 202.443C521.591 202.199 521.633 202.012 521.67 201.876C521.708 201.734 521.73 201.686 521.722 201.702C521.717 201.714 521.697 201.76 521.655 201.83C521.614 201.898 521.536 202.017 521.411 202.155C521.168 202.421 520.584 202.923 519.654 202.993L519.249 197.007C518.145 197.09 517.395 197.686 516.994 198.127C516.604 198.555 516.37 199.013 516.23 199.332C515.947 199.98 515.771 200.726 515.646 201.414C515.388 202.838 515.228 204.752 515.142 206.953C514.971 211.396 515.094 217.429 515.54 224.019L521.523 223.569ZM519.654 202.993C518.725 203.063 518.079 202.654 517.803 202.426C517.66 202.309 517.567 202.203 517.518 202.142C517.467 202.079 517.44 202.036 517.433 202.025C517.424 202.01 517.452 202.054 517.509 202.189C517.564 202.319 517.63 202.497 517.707 202.732C518.024 203.704 518.384 205.251 518.748 207.321C519.47 211.424 520.142 217.193 520.579 223.64L526.562 223.189C526.115 216.6 525.423 210.609 524.654 206.237C524.273 204.07 523.856 202.201 523.409 200.83C523.193 200.168 522.917 199.456 522.55 198.857C522.369 198.561 522.076 198.143 521.632 197.778C521.175 197.402 520.352 196.923 519.249 197.007L519.654 202.993ZM520.579 223.64C521.016 230.086 521.128 235.897 520.967 240.067C520.886 242.171 520.738 243.755 520.555 244.766C520.511 245.01 520.469 245.196 520.432 245.332C520.394 245.475 520.372 245.523 520.38 245.506C520.385 245.495 520.405 245.448 520.447 245.378C520.488 245.31 520.566 245.192 520.691 245.054C520.934 244.787 521.518 244.286 522.448 244.216L522.853 250.202C523.957 250.119 524.707 249.522 525.108 249.081C525.498 248.653 525.732 248.195 525.872 247.876C526.154 247.228 526.331 246.482 526.455 245.794C526.713 244.37 526.874 242.457 526.959 240.255C527.131 235.813 527.008 229.779 526.562 223.189L520.579 223.64ZM522.448 244.216C523.377 244.146 524.023 244.554 524.299 244.782C524.442 244.9 524.535 245.005 524.584 245.066C524.635 245.129 524.662 245.173 524.668 245.183C524.678 245.199 524.65 245.154 524.593 245.019C524.538 244.89 524.472 244.711 524.395 244.477C524.078 243.504 523.718 241.958 523.354 239.887C522.632 235.784 521.96 230.015 521.523 223.569L515.54 224.019C515.987 230.609 516.679 236.6 517.447 240.971C517.829 243.138 518.246 245.008 518.693 246.379C518.909 247.041 519.184 247.753 519.552 248.352C519.733 248.647 520.026 249.065 520.47 249.43C520.927 249.806 521.75 250.285 522.853 250.202L522.448 244.216Z" fill="#FF8E4F" fill-opacity="0.49" mask="url(#path-60-inside-4_55_17)"/>
<ellipse cx="23.2989" cy="23.6587" rx="23.2989" ry="23.6587" transform="matrix(-0.997178 0.0750738 -0.0676039 -0.997712 544.465 199.322)" fill="black"/>
<path d="M497.895 179.103C497.066 166.871 506.15 156.261 518.134 155.359C530.118 154.456 540.541 163.598 541.37 175.83C542.198 188.062 533.114 198.672 521.13 199.574C509.147 200.477 498.724 191.335 497.895 179.103Z" stroke="#FF8E4F" stroke-opacity="0.49" stroke-width="3"/>
<path d="M507.972 178.344C507.544 172.032 508.591 166.284 510.554 162.106C512.542 157.877 515.288 155.573 518.134 155.358C520.98 155.144 524.01 157.013 526.547 160.902C529.054 164.744 530.865 170.277 531.293 176.589C531.72 182.9 530.673 188.649 528.71 192.826C526.723 197.056 523.976 199.36 521.13 199.574C518.284 199.789 515.255 197.919 512.717 194.03C510.211 190.189 508.4 184.656 507.972 178.344Z" stroke="#FF8E4F" stroke-opacity="0.49" stroke-width="3"/>
<path d="M502.373 178.766C501.523 166.217 508.904 156.053 518.134 155.358C527.364 154.664 536.041 163.619 536.891 176.167C537.741 188.715 530.36 198.879 521.13 199.574C511.9 200.269 503.224 191.314 502.373 178.766Z" stroke="#FF8E4F" stroke-opacity="0.49" stroke-width="3"/>
<path d="M520.81 194.854C508.5 195.78 498.527 188.43 497.895 179.103C497.263 169.776 506.143 161.006 518.454 160.079C530.765 159.153 540.738 166.503 541.37 175.83C542.002 185.157 533.121 193.927 520.81 194.854Z" stroke="#FF8E4F" stroke-opacity="0.49" stroke-width="3"/>
<path d="M520.81 194.854C508.5 195.78 498.527 188.43 497.895 179.103C497.263 169.776 506.143 161.006 518.454 160.079C530.765 159.153 540.738 166.503 541.37 175.83C542.002 185.157 533.121 193.927 520.81 194.854Z" stroke="#FF8E4F" stroke-opacity="0.49" stroke-width="3"/>
<path d="M520.65 192.493C514.532 192.954 508.921 191.475 504.798 188.782C500.675 186.091 498.108 182.245 497.815 177.923C497.522 173.601 499.545 169.409 503.263 166.127C506.981 162.844 512.336 160.54 518.454 160.079C524.572 159.619 530.183 161.097 534.307 163.79C538.429 166.482 540.997 170.328 541.29 174.65C541.582 178.972 539.559 183.163 535.842 186.445C532.123 189.728 526.768 192.033 520.65 192.493Z" stroke="#FF8E4F" stroke-opacity="0.49" stroke-width="3"/>
<path d="M520.49 190.133C514.309 190.598 508.678 189.452 504.58 187.301C500.46 185.138 498.097 182.095 497.875 178.808C497.652 175.521 499.58 172.154 503.367 169.396C507.133 166.654 512.552 164.676 518.734 164.21C524.915 163.745 530.546 164.891 534.644 167.042C538.764 169.204 541.127 172.248 541.35 175.535C541.572 178.822 539.644 182.188 535.857 184.946C532.091 187.689 526.672 189.667 520.49 190.133Z" stroke="#FF8E4F" stroke-opacity="0.49" stroke-width="3"/>
<path d="M520.29 187.182C514.081 187.65 508.438 186.658 504.347 184.751C500.204 182.822 497.964 180.131 497.775 177.333C497.585 174.534 499.439 171.536 503.28 169.005C507.073 166.505 512.525 164.678 518.734 164.21C524.943 163.743 530.586 164.735 534.678 166.641C538.82 168.571 541.06 171.261 541.25 174.06C541.439 176.858 539.585 179.857 535.745 182.388C531.952 184.887 526.5 186.715 520.29 187.182Z" stroke="#FF8E4F" stroke-opacity="0.49" stroke-width="3"/>
<path d="M520.171 185.412C513.914 185.883 508.245 185.174 504.153 183.707C502.105 182.973 500.521 182.074 499.451 181.099C498.388 180.132 497.898 179.156 497.835 178.218C497.771 177.279 498.125 176.24 499.046 175.124C499.973 173.999 501.421 172.871 503.349 171.838C507.202 169.773 512.717 168.222 518.974 167.751C525.23 167.28 530.899 167.989 534.991 169.456C537.039 170.19 538.624 171.089 539.694 172.063C540.756 173.031 541.246 174.006 541.31 174.945C541.373 175.883 541.02 176.922 540.099 178.039C539.171 179.164 537.724 180.291 535.795 181.325C531.943 183.389 526.427 184.941 520.171 185.412Z" stroke="#FF8E4F" stroke-opacity="0.49" stroke-width="3"/>
<path d="M520.171 185.412C513.914 185.883 508.245 185.174 504.153 183.707C502.105 182.973 500.521 182.074 499.451 181.099C498.388 180.132 497.898 179.156 497.835 178.218C497.771 177.279 498.125 176.24 499.046 175.124C499.973 173.999 501.421 172.871 503.349 171.838C507.202 169.773 512.717 168.222 518.974 167.751C525.23 167.28 530.899 167.989 534.991 169.456C537.039 170.19 538.624 171.089 539.694 172.063C540.756 173.031 541.246 174.006 541.31 174.945C541.373 175.883 541.02 176.922 540.099 178.039C539.171 179.164 537.724 180.291 535.795 181.325C531.943 183.389 526.427 184.941 520.171 185.412Z" stroke="#FF8E4F" stroke-opacity="0.49" stroke-width="3"/>
<path d="M519.931 181.871C513.616 182.347 507.904 182.023 503.791 181.149C501.724 180.709 500.147 180.148 499.11 179.539C498.025 178.901 497.848 178.41 497.835 178.218C497.822 178.025 497.931 177.513 498.919 176.719C499.863 175.961 501.349 175.169 503.335 174.425C507.289 172.943 512.899 171.767 519.214 171.292C525.529 170.816 531.24 171.14 535.353 172.014C537.42 172.453 538.997 173.014 540.034 173.624C541.12 174.262 541.296 174.752 541.31 174.945C541.323 175.137 541.214 175.65 540.225 176.443C539.281 177.202 537.796 177.994 535.809 178.738C531.855 180.22 526.246 181.396 519.931 181.871Z" stroke="#FF8E4F" stroke-opacity="0.49" stroke-width="3"/>
<path d="M519.931 181.871C513.593 182.348 507.862 182.188 503.733 181.565C501.656 181.251 500.068 180.833 499.026 180.365C498.505 180.131 498.194 179.917 498.03 179.758C498.003 179.732 497.982 179.709 497.966 179.691C497.979 179.67 497.997 179.645 498.02 179.614C498.161 179.432 498.44 179.174 498.925 178.864C499.892 178.246 501.408 177.593 503.421 176.972C507.424 175.736 513.076 174.719 519.414 174.242C525.752 173.765 531.483 173.925 535.612 174.548C537.688 174.862 539.277 175.281 540.318 175.748C540.839 175.982 541.15 176.196 541.314 176.355C541.342 176.381 541.362 176.404 541.378 176.422C541.365 176.443 541.347 176.469 541.324 176.499C541.183 176.681 540.904 176.939 540.419 177.249C539.452 177.867 537.936 178.52 535.923 179.141C531.92 180.377 526.268 181.394 519.931 181.871ZM497.92 179.626C497.92 179.626 497.921 179.628 497.923 179.632C497.921 179.628 497.92 179.626 497.92 179.626ZM497.931 179.755C497.93 179.759 497.93 179.762 497.929 179.762C497.929 179.762 497.93 179.76 497.931 179.755ZM541.424 176.487C541.424 176.487 541.423 176.485 541.421 176.481C541.423 176.485 541.424 176.487 541.424 176.487ZM541.413 176.358C541.414 176.354 541.415 176.352 541.415 176.352C541.415 176.352 541.415 176.354 541.413 176.358Z" stroke="#FF8E4F" stroke-opacity="0.49" stroke-width="3"/>
<path d="M519.731 178.921C513.371 179.399 507.619 179.404 503.471 179.036C501.385 178.85 499.776 178.576 498.715 178.251C498.626 178.224 498.544 178.197 498.467 178.17C498.539 178.133 498.617 178.094 498.702 178.053C499.708 177.572 501.264 177.06 503.304 176.564C507.359 175.578 513.054 174.721 519.414 174.242C525.774 173.763 531.526 173.759 535.673 174.127C537.759 174.312 539.369 174.586 540.429 174.912C540.518 174.939 540.601 174.966 540.677 174.992C540.605 175.03 540.527 175.069 540.443 175.109C539.437 175.59 537.88 176.103 535.841 176.599C531.785 177.585 526.091 178.442 519.731 178.921ZM497.666 177.788C497.667 177.788 497.67 177.791 497.675 177.796C497.669 177.791 497.666 177.788 497.666 177.788ZM497.734 178.659C497.729 178.665 497.726 178.669 497.726 178.669C497.726 178.669 497.728 178.666 497.734 178.659ZM541.478 175.375C541.478 175.375 541.474 175.372 541.469 175.366C541.476 175.372 541.478 175.375 541.478 175.375ZM541.411 174.504C541.415 174.497 541.418 174.494 541.418 174.494C541.419 174.494 541.416 174.497 541.411 174.504Z" stroke="#FF8E4F" stroke-opacity="0.49" stroke-width="3"/>
<mask id="path-76-inside-5_55_17" fill="white">
<ellipse cx="2.36587" cy="23.2989" rx="2.36587" ry="23.2989" transform="matrix(0.0676039 0.997712 -0.997178 0.0750738 542.745 173.947)"/>
</mask>
<path d="M519.629 177.424C513.281 177.902 507.561 178.069 503.457 177.962C501.387 177.908 499.825 177.786 498.828 177.624C498.587 177.585 498.402 177.547 498.267 177.514C498.125 177.479 498.076 177.458 498.091 177.465C498.102 177.469 498.148 177.488 498.218 177.528C498.285 177.565 498.406 177.64 498.547 177.762C498.813 177.993 499.363 178.591 499.43 179.581L493.447 180.031C493.525 181.184 494.168 181.937 494.603 182.314C495.032 182.685 495.486 182.901 495.795 183.027C496.426 183.285 497.154 183.441 497.826 183.55C499.218 183.776 501.093 183.907 503.256 183.963C507.619 184.077 513.551 183.898 520.035 183.41L519.629 177.424ZM499.43 179.581C499.497 180.571 499.033 181.245 498.801 181.513C498.678 181.655 498.568 181.747 498.507 181.794C498.443 181.844 498.4 181.87 498.39 181.876C498.376 181.884 498.421 181.856 498.557 181.801C498.687 181.747 498.865 181.682 499.098 181.607C500.063 181.298 501.593 180.943 503.635 180.579C507.682 179.858 513.367 179.167 519.715 178.689L519.309 172.703C512.826 173.191 506.93 173.903 502.627 174.669C500.493 175.049 498.655 175.459 497.307 175.892C496.657 176.1 495.958 176.364 495.367 176.713C495.078 176.884 494.658 177.166 494.284 177.598C493.904 178.037 493.369 178.878 493.447 180.031L499.43 179.581ZM519.715 178.689C526.063 178.211 531.783 178.044 535.887 178.151C537.957 178.205 539.519 178.327 540.516 178.489C540.757 178.528 540.942 178.566 541.078 178.599C541.22 178.634 541.268 178.655 541.253 178.649C541.243 178.644 541.196 178.625 541.126 178.586C541.059 178.548 540.939 178.473 540.797 178.351C540.531 178.12 539.981 177.523 539.914 176.533L545.897 176.082C545.819 174.929 545.176 174.177 544.741 173.799C544.312 173.428 543.858 173.212 543.549 173.086C542.918 172.829 542.19 172.672 541.518 172.563C540.126 172.337 538.251 172.207 536.088 172.15C531.725 172.036 525.793 172.215 519.309 172.703L519.715 178.689ZM539.914 176.533C539.847 175.543 540.311 174.869 540.543 174.601C540.666 174.458 540.776 174.367 540.837 174.319C540.901 174.269 540.944 174.243 540.954 174.238C540.968 174.229 540.923 174.257 540.787 174.313C540.658 174.366 540.48 174.431 540.246 174.506C539.281 174.815 537.751 175.17 535.71 175.534C531.662 176.255 525.977 176.946 519.629 177.424L520.035 183.41C526.518 182.922 532.414 182.21 536.718 181.444C538.851 181.064 540.69 180.654 542.037 180.222C542.687 180.013 543.387 179.749 543.977 179.4C544.266 179.229 544.686 178.947 545.06 178.515C545.44 178.076 545.975 177.235 545.897 176.082L539.914 176.533Z" fill="#FF8E4F" fill-opacity="0.49" mask="url(#path-76-inside-5_55_17)"/>
<path d="M514.69 177.838C514.255 171.418 514.607 165.606 515.497 161.414C515.944 159.307 516.51 157.696 517.121 156.635C517.764 155.518 518.248 155.35 518.414 155.337C518.58 155.325 519.082 155.419 519.869 156.428C520.617 157.387 521.394 158.897 522.121 160.915C523.567 164.931 524.699 170.632 525.134 177.052C525.569 183.472 525.217 189.285 524.327 193.477C523.88 195.584 523.315 197.194 522.703 198.256C522.06 199.373 521.576 199.541 521.41 199.553C521.244 199.566 520.743 199.472 519.955 198.463C519.207 197.504 518.43 195.994 517.704 193.976C516.257 189.959 515.125 184.259 514.69 177.838Z" stroke="#FF8E4F" stroke-opacity="0.49" stroke-width="3"/>
<path d="M514.69 177.838C514.255 171.418 514.607 165.606 515.497 161.414C515.944 159.307 516.51 157.696 517.121 156.635C517.764 155.518 518.248 155.35 518.414 155.337C518.58 155.325 519.082 155.419 519.869 156.428C520.617 157.387 521.394 158.897 522.121 160.915C523.567 164.931 524.699 170.632 525.134 177.052C525.569 183.472 525.217 189.285 524.327 193.477C523.88 195.584 523.315 197.194 522.703 198.256C522.06 199.373 521.576 199.541 521.41 199.553C521.244 199.566 520.743 199.472 519.955 198.463C519.207 197.504 518.43 195.994 517.704 193.976C516.257 189.959 515.125 184.259 514.69 177.838Z" stroke="#FF8E4F" stroke-opacity="0.49" stroke-width="3"/>
<mask id="path-80-inside-6_55_17" fill="white">
<ellipse cx="2.52639" cy="23.6587" rx="2.52639" ry="23.6587" transform="matrix(-0.997178 0.0750738 -0.0676039 -0.997712 524.311 200.839)"/>
</mask>
<path d="M520.664 177.389C520.227 170.942 520.115 165.131 520.276 160.961C520.357 158.857 520.505 157.273 520.688 156.263C520.732 156.019 520.774 155.832 520.811 155.696C520.849 155.554 520.871 155.506 520.863 155.523C520.858 155.534 520.838 155.581 520.796 155.651C520.755 155.718 520.677 155.837 520.552 155.975C520.309 156.241 519.725 156.743 518.795 156.813L518.39 150.827C517.286 150.91 516.536 151.507 516.135 151.947C515.745 152.375 515.511 152.833 515.371 153.152C515.088 153.8 514.912 154.547 514.788 155.234C514.53 156.658 514.369 158.572 514.284 160.774C514.112 165.216 514.235 171.249 514.681 177.839L520.664 177.389ZM518.795 156.813C517.866 156.883 517.22 156.474 516.944 156.246C516.801 156.129 516.708 156.023 516.659 155.962C516.608 155.899 516.581 155.856 516.575 155.845C516.565 155.83 516.593 155.874 516.65 156.009C516.705 156.139 516.771 156.317 516.848 156.552C517.165 157.524 517.525 159.071 517.889 161.141C518.611 165.244 519.283 171.013 519.72 177.46L525.703 177.009C525.256 170.42 524.564 164.429 523.796 160.057C523.414 157.891 522.997 156.021 522.55 154.65C522.334 153.988 522.059 153.276 521.691 152.677C521.51 152.381 521.217 151.963 520.773 151.598C520.316 151.222 519.493 150.743 518.39 150.827L518.795 156.813ZM519.72 177.46C520.157 183.906 520.269 189.718 520.108 193.887C520.027 195.991 519.879 197.576 519.696 198.586C519.652 198.83 519.61 199.016 519.573 199.152C519.535 199.295 519.513 199.343 519.521 199.326C519.526 199.315 519.546 199.268 519.588 199.198C519.629 199.13 519.707 199.012 519.832 198.874C520.075 198.607 520.659 198.106 521.589 198.036L521.994 204.022C523.098 203.939 523.848 203.342 524.249 202.901C524.639 202.473 524.873 202.015 525.013 201.696C525.296 201.048 525.472 200.302 525.597 199.614C525.854 198.19 526.015 196.277 526.101 194.075C526.272 189.633 526.149 183.599 525.703 177.009L519.72 177.46ZM521.589 198.036C522.518 197.966 523.164 198.375 523.44 198.602C523.583 198.72 523.676 198.826 523.725 198.886C523.776 198.95 523.803 198.993 523.81 199.003C523.819 199.019 523.791 198.974 523.734 198.839C523.679 198.71 523.613 198.531 523.536 198.297C523.219 197.324 522.859 195.778 522.495 193.708C521.773 189.604 521.101 183.835 520.664 177.389L514.681 177.839C515.128 184.429 515.82 190.42 516.589 194.791C516.97 196.958 517.387 198.828 517.834 200.199C518.05 200.861 518.326 201.573 518.693 202.172C518.874 202.467 519.167 202.885 519.611 203.25C520.068 203.627 520.891 204.105 521.994 204.022L521.589 198.036Z" fill="#FF8E4F" fill-opacity="0.49" mask="url(#path-80-inside-6_55_17)"/>
<ellipse cx="23.2989" cy="23.6587" rx="23.2989" ry="23.6587" transform="matrix(-0.997178 0.0750738 -0.0676039 -0.997712 546.562 132.209)" fill="black"/>
<path d="M499.992 111.99C499.163 99.7586 508.248 89.148 520.232 88.2457C532.215 87.3435 542.638 96.4856 543.467 108.717C544.296 120.949 535.211 131.559 523.228 132.462C511.244 133.364 500.821 124.222 499.992 111.99Z" stroke="#FF8E4F" stroke-opacity="0.49" stroke-width="3"/>
<path d="M510.069 111.231C509.641 104.92 510.688 99.1715 512.651 94.9936C514.639 90.7641 517.385 88.4599 520.231 88.2456C523.077 88.0314 526.107 89.9007 528.644 93.7895C531.151 97.6309 532.962 103.164 533.39 109.476C533.818 115.788 532.771 121.536 530.807 125.714C528.82 129.943 526.073 132.247 523.228 132.462C520.382 132.676 517.352 130.806 514.815 126.918C512.308 123.076 510.497 117.543 510.069 111.231Z" stroke="#FF8E4F" stroke-opacity="0.49" stroke-width="3"/>
<path d="M504.471 111.653C503.62 99.1046 511.002 88.9406 520.231 88.2457C529.461 87.5508 538.138 96.5059 538.988 109.054C539.838 121.603 532.457 131.767 523.227 132.462C513.998 133.157 505.321 124.201 504.471 111.653Z" stroke="#FF8E4F" stroke-opacity="0.49" stroke-width="3"/>
<path d="M522.908 127.741C510.597 128.668 500.624 121.317 499.992 111.99C499.36 102.663 508.241 93.8935 520.551 92.9667C532.862 92.0398 542.835 99.3902 543.467 108.717C544.099 118.044 535.218 126.814 522.908 127.741Z" stroke="#FF8E4F" stroke-opacity="0.49" stroke-width="3"/>
<path d="M522.908 127.741C510.597 128.668 500.624 121.317 499.992 111.99C499.36 102.663 508.241 93.8935 520.551 92.9667C532.862 92.0398 542.835 99.3902 543.467 108.717C544.099 118.044 535.218 126.814 522.908 127.741Z" stroke="#FF8E4F" stroke-opacity="0.49" stroke-width="3"/>
<path d="M522.748 125.38C516.63 125.841 511.019 124.362 506.895 121.67C502.772 118.978 500.205 115.132 499.912 110.81C499.619 106.488 501.642 102.297 505.36 99.0145C509.079 95.7313 514.433 93.4273 520.551 92.9667C526.669 92.5061 532.28 93.9846 536.404 96.6773C540.526 99.3692 543.094 103.215 543.387 107.537C543.68 111.859 541.657 116.05 537.939 119.332C534.22 122.616 528.866 124.92 522.748 125.38Z" stroke="#FF8E4F" stroke-opacity="0.49" stroke-width="3"/>
<path d="M522.588 123.02C516.406 123.485 510.775 122.339 506.678 120.188C502.557 118.026 500.195 114.982 499.972 111.695C499.749 108.408 501.677 105.042 505.464 102.284C509.23 99.5409 514.65 97.5628 520.831 97.0974C527.013 96.632 532.644 97.7782 536.741 99.9289C540.862 102.092 543.224 105.135 543.447 108.422C543.67 111.709 541.741 115.076 537.954 117.834C534.189 120.576 528.769 122.554 522.588 123.02Z" stroke="#FF8E4F" stroke-opacity="0.49" stroke-width="3"/>
<path d="M522.388 120.069C516.179 120.537 510.536 119.545 506.444 117.639C502.301 115.709 500.062 113.019 499.872 110.22C499.682 107.421 501.537 104.423 505.377 101.892C509.17 99.392 514.622 97.5649 520.831 97.0974C527.04 96.6299 532.683 97.6218 536.775 99.528C540.918 101.458 543.157 104.148 543.347 106.947C543.537 109.746 541.682 112.744 537.842 115.275C534.049 117.775 528.597 119.602 522.388 120.069Z" stroke="#FF8E4F" stroke-opacity="0.49" stroke-width="3"/>
<path d="M522.268 118.299C516.011 118.77 510.342 118.061 506.251 116.594C504.203 115.86 502.618 114.961 501.548 113.986C500.486 113.019 499.996 112.044 499.932 111.105C499.868 110.166 500.222 109.127 501.143 108.011C502.071 106.886 503.518 105.758 505.446 104.725C509.299 102.66 514.815 101.109 521.071 100.638C527.328 100.167 532.997 100.876 537.088 102.343C539.136 103.077 540.721 103.976 541.791 104.951C542.853 105.918 543.343 106.893 543.407 107.832C543.471 108.771 543.117 109.809 542.196 110.926C541.268 112.051 539.821 113.179 537.893 114.212C534.04 116.277 528.524 117.828 522.268 118.299Z" stroke="#FF8E4F" stroke-opacity="0.49" stroke-width="3"/>
<path d="M522.268 118.299C516.011 118.77 510.342 118.061 506.251 116.594C504.203 115.86 502.618 114.961 501.548 113.986C500.486 113.019 499.996 112.044 499.932 111.105C499.868 110.166 500.222 109.127 501.143 108.011C502.071 106.886 503.518 105.758 505.446 104.725C509.299 102.66 514.815 101.109 521.071 100.638C527.328 100.167 532.997 100.876 537.088 102.343C539.136 103.077 540.721 103.976 541.791 104.951C542.853 105.918 543.343 106.893 543.407 107.832C543.471 108.771 543.117 109.809 542.196 110.926C541.268 112.051 539.821 113.179 537.893 114.212C534.04 116.277 528.524 117.828 522.268 118.299Z" stroke="#FF8E4F" stroke-opacity="0.49" stroke-width="3"/>
<path d="M522.028 114.758C515.713 115.234 510.002 114.91 505.888 114.036C503.821 113.596 502.244 113.036 501.207 112.426C500.122 111.788 499.945 111.298 499.932 111.105C499.919 110.913 500.028 110.4 501.016 109.606C501.96 108.848 503.446 108.056 505.432 107.312C509.386 105.83 514.996 104.654 521.311 104.179C527.626 103.703 533.337 104.027 537.451 104.901C539.518 105.341 541.095 105.901 542.132 106.511C543.217 107.149 543.394 107.639 543.407 107.832C543.42 108.025 543.311 108.537 542.323 109.331C541.378 110.089 539.893 110.881 537.906 111.625C533.953 113.107 528.343 114.283 522.028 114.758Z" stroke="#FF8E4F" stroke-opacity="0.49" stroke-width="3"/>
<path d="M522.028 114.758C515.69 115.235 509.959 115.075 505.83 114.452C503.753 114.139 502.165 113.72 501.124 113.253C500.602 113.019 500.292 112.804 500.127 112.645C500.1 112.619 500.079 112.597 500.063 112.578C500.076 112.557 500.094 112.532 500.118 112.502C500.259 112.32 500.537 112.061 501.022 111.751C501.99 111.133 503.505 110.481 505.519 109.859C509.522 108.623 515.173 107.607 521.511 107.129C527.849 106.652 533.58 106.812 537.709 107.436C539.786 107.749 541.374 108.168 542.415 108.635C542.937 108.869 543.247 109.083 543.411 109.242C543.439 109.269 543.46 109.291 543.476 109.31C543.462 109.33 543.445 109.356 543.421 109.386C543.28 109.568 543.001 109.826 542.517 110.136C541.549 110.755 540.034 111.407 538.02 112.029C534.017 113.264 528.366 114.281 522.028 114.758ZM500.017 112.513C500.018 112.513 500.019 112.515 500.02 112.519C500.018 112.515 500.017 112.513 500.017 112.513ZM500.029 112.642C500.028 112.647 500.027 112.649 500.027 112.649C500.026 112.649 500.027 112.647 500.029 112.642ZM543.521 109.374C543.521 109.374 543.52 109.372 543.519 109.368C543.521 109.372 543.521 109.374 543.521 109.374ZM543.51 109.245C543.511 109.241 543.512 109.239 543.512 109.239C543.512 109.239 543.512 109.241 543.51 109.245Z" stroke="#FF8E4F" stroke-opacity="0.49" stroke-width="3"/>
<path d="M521.828 111.808C515.468 112.287 509.716 112.291 505.568 111.923C503.482 111.737 501.873 111.464 500.812 111.138C500.723 111.111 500.641 111.084 500.564 111.057C500.636 111.02 500.715 110.981 500.799 110.94C501.805 110.459 503.361 109.947 505.401 109.451C509.457 108.465 515.151 107.608 521.511 107.129C527.871 106.651 533.623 106.646 537.771 107.014C539.856 107.2 541.466 107.473 542.527 107.799C542.615 107.826 542.698 107.853 542.775 107.88C542.702 107.917 542.624 107.956 542.54 107.997C541.534 108.478 539.978 108.99 537.938 109.486C533.882 110.472 528.188 111.329 521.828 111.808ZM499.764 110.675C499.764 110.675 499.767 110.678 499.772 110.683C499.766 110.678 499.763 110.675 499.764 110.675ZM499.831 111.546C499.826 111.553 499.824 111.556 499.823 111.556C499.823 111.556 499.825 111.553 499.831 111.546ZM543.575 108.262C543.575 108.262 543.572 108.259 543.566 108.254C543.573 108.259 543.576 108.262 543.575 108.262ZM543.508 107.391C543.512 107.384 543.515 107.381 543.516 107.381C543.516 107.381 543.514 107.384 543.508 107.391Z" stroke="#FF8E4F" stroke-opacity="0.49" stroke-width="3"/>
<mask id="path-96-inside-7_55_17" fill="white">
<ellipse cx="2.36587" cy="23.2989" rx="2.36587" ry="23.2989" transform="matrix(0.0676039 0.997712 -0.997178 0.0750738 544.843 106.834)"/>
</mask>
<path d="M521.726 110.311C515.379 110.789 509.658 110.956 505.555 110.849C503.484 110.795 501.923 110.673 500.925 110.511C500.684 110.472 500.499 110.434 500.364 110.401C500.222 110.366 500.173 110.346 500.189 110.352C500.199 110.356 500.245 110.375 500.315 110.415C500.382 110.453 500.503 110.527 500.644 110.649C500.91 110.88 501.461 111.478 501.528 112.468L495.545 112.918C495.623 114.071 496.265 114.824 496.701 115.201C497.129 115.572 497.583 115.789 497.892 115.914C498.524 116.172 499.251 116.328 499.923 116.437C501.315 116.663 503.191 116.794 505.354 116.85C509.716 116.964 515.648 116.786 522.132 116.297L521.726 110.311ZM501.528 112.468C501.595 113.458 501.131 114.132 500.898 114.4C500.775 114.542 500.666 114.634 500.604 114.682C500.54 114.731 500.497 114.757 500.487 114.763C500.473 114.771 500.518 114.744 500.654 114.688C500.784 114.635 500.962 114.569 501.195 114.495C502.161 114.185 503.69 113.83 505.732 113.467C509.78 112.746 515.465 112.054 521.812 111.577L521.407 105.59C514.923 106.078 509.027 106.79 504.724 107.556C502.59 107.936 500.752 108.347 499.404 108.779C498.754 108.987 498.055 109.251 497.465 109.601C497.176 109.772 496.755 110.054 496.381 110.485C496.001 110.924 495.467 111.765 495.545 112.918L501.528 112.468ZM521.812 111.577C528.16 111.099 533.88 110.931 537.984 111.038C540.054 111.093 541.616 111.215 542.613 111.376C542.854 111.415 543.039 111.453 543.175 111.487C543.317 111.522 543.366 111.542 543.35 111.536C543.34 111.532 543.294 111.512 543.224 111.473C543.156 111.435 543.036 111.361 542.894 111.238C542.628 111.008 542.078 110.41 542.011 109.42L547.994 108.969C547.916 107.817 547.274 107.064 546.838 106.687C546.41 106.315 545.955 106.099 545.646 105.973C545.015 105.716 544.287 105.559 543.616 105.45C542.223 105.224 540.348 105.094 538.185 105.037C533.822 104.923 527.89 105.102 521.407 105.59L521.812 111.577ZM542.011 109.42C541.944 108.43 542.408 107.756 542.64 107.488C542.764 107.345 542.873 107.254 542.935 107.206C542.998 107.157 543.042 107.131 543.051 107.125C543.066 107.116 543.02 107.144 542.884 107.2C542.755 107.253 542.577 107.318 542.343 107.393C541.378 107.703 539.849 108.057 537.807 108.421C533.759 109.142 528.074 109.833 521.726 110.311L522.132 116.297C528.616 115.809 534.512 115.098 538.815 114.331C540.948 113.951 542.787 113.541 544.135 113.109C544.785 112.9 545.484 112.636 546.074 112.287C546.363 112.116 546.783 111.834 547.158 111.402C547.538 110.964 548.072 110.122 547.994 108.969L542.011 109.42Z" fill="#FF8E4F" fill-opacity="0.49" mask="url(#path-96-inside-7_55_17)"/>
<path d="M516.787 110.726C516.352 104.306 516.704 98.4931 517.594 94.3009C518.042 92.1944 518.607 90.5837 519.218 89.5223C519.862 88.405 520.345 88.2372 520.511 88.2247C520.678 88.2122 521.179 88.3059 521.967 89.3154C522.715 90.2744 523.491 91.7841 524.218 93.8022C525.664 97.8185 526.797 103.519 527.232 109.939C527.667 116.36 527.314 122.172 526.424 126.364C525.977 128.471 525.412 130.082 524.801 131.143C524.157 132.26 523.674 132.428 523.507 132.441C523.341 132.453 522.84 132.359 522.052 131.35C521.304 130.391 520.528 128.881 519.801 126.863C518.355 122.847 517.222 117.146 516.787 110.726Z" stroke="#FF8E4F" stroke-opacity="0.49" stroke-width="3"/>
<path d="M516.787 110.726C516.352 104.306 516.704 98.4931 517.594 94.3009C518.042 92.1944 518.607 90.5837 519.218 89.5223C519.862 88.405 520.345 88.2372 520.511 88.2247C520.678 88.2122 521.179 88.3059 521.967 89.3154C522.715 90.2744 523.491 91.7841 524.218 93.8022C525.664 97.8185 526.797 103.519 527.232 109.939C527.667 116.36 527.314 122.172 526.424 126.364C525.977 128.471 525.412 130.082 524.801 131.143C524.157 132.26 523.674 132.428 523.507 132.441C523.341 132.453 522.84 132.359 522.052 131.35C521.304 130.391 520.528 128.881 519.801 126.863C518.355 122.847 517.222 117.146 516.787 110.726Z" stroke="#FF8E4F" stroke-opacity="0.49" stroke-width="3"/>
<mask id="path-100-inside-8_55_17" fill="white">
<ellipse cx="2.52639" cy="23.6587" rx="2.52639" ry="23.6587" transform="matrix(-0.997178 0.0750738 -0.0676039 -0.997712 526.408 133.726)"/>
</mask>
<path d="M522.762 110.276C522.325 103.829 522.212 98.0182 522.373 93.8485C522.454 91.7446 522.602 90.1601 522.785 89.15C522.829 88.906 522.871 88.7195 522.908 88.5834C522.946 88.4408 522.968 88.3929 522.961 88.4098C522.956 88.4209 522.935 88.4677 522.893 88.5378C522.852 88.6055 522.775 88.724 522.649 88.8619C522.406 89.1287 521.822 89.6301 520.893 89.7L520.487 83.7138C519.383 83.7969 518.634 84.3938 518.232 84.8345C517.842 85.2625 517.608 85.7203 517.469 86.0396C517.186 86.6875 517.009 87.4338 516.885 88.1214C516.627 89.5456 516.466 91.4588 516.381 93.6608C516.209 98.1029 516.332 104.137 516.779 110.726L522.762 110.276ZM520.893 89.7C519.963 89.77 519.318 89.3612 519.041 89.1335C518.898 89.0159 518.805 88.9101 518.756 88.8492C518.705 88.7862 518.678 88.743 518.672 88.7327C518.662 88.7171 518.69 88.7613 518.747 88.8967C518.802 89.0259 518.869 89.2042 518.945 89.4391C519.263 90.4116 519.622 91.9578 519.987 94.0282C520.708 98.1314 521.38 103.9 521.817 110.347L527.8 109.897C527.354 103.307 526.662 97.316 525.893 92.9446C525.512 90.7778 525.094 88.9081 524.647 87.537C524.431 86.875 524.156 86.1628 523.788 85.5638C523.607 85.2686 523.314 84.8505 522.87 84.4853C522.413 84.1092 521.591 83.6307 520.487 83.7138L520.893 89.7ZM521.817 110.347C522.254 116.794 522.367 122.605 522.205 126.774C522.124 128.878 521.976 130.463 521.793 131.473C521.749 131.717 521.707 131.903 521.671 132.039C521.632 132.182 521.611 132.23 521.618 132.213C521.623 132.202 521.644 132.155 521.686 132.085C521.726 132.017 521.804 131.899 521.929 131.761C522.173 131.494 522.756 130.993 523.686 130.923L524.092 136.909C525.195 136.826 525.945 136.229 526.347 135.788C526.737 135.36 526.97 134.903 527.11 134.583C527.393 133.935 527.569 133.189 527.694 132.502C527.952 131.077 528.113 129.164 528.198 126.962C528.37 122.52 528.247 116.486 527.8 109.897L521.817 110.347ZM523.686 130.923C524.616 130.853 525.261 131.262 525.538 131.489C525.68 131.607 525.773 131.713 525.823 131.774C525.873 131.837 525.901 131.88 525.907 131.89C525.916 131.906 525.888 131.862 525.831 131.726C525.777 131.597 525.71 131.419 525.633 131.184C525.316 130.211 524.956 128.665 524.592 126.595C523.87 122.492 523.198 116.723 522.762 110.276L516.779 110.726C517.225 117.316 517.917 123.307 518.686 127.678C519.067 129.845 519.484 131.715 519.932 133.086C520.148 133.748 520.423 134.46 520.79 135.059C520.971 135.354 521.265 135.772 521.708 136.138C522.165 136.514 522.988 136.992 524.092 136.909L523.686 130.923Z" fill="#FF8E4F" fill-opacity="0.49" mask="url(#path-100-inside-8_55_17)"/>
</svg>
