<svg width="718" height="712" viewBox="0 0 718 712" fill="none" xmlns="http://www.w3.org/2000/svg">
<path fill-rule="evenodd" clip-rule="evenodd" d="M439.04 61.8329C421.397 26.3779 393.823 0.238281 358.957 0.238281C324.13 0.238281 296.47 26.3333 278.662 61.7613L219.972 179.141L219.881 179.325C218.12 182.92 213.91 188.037 207.567 192.74C201.246 197.427 195.113 199.992 191.182 200.668L191.147 200.674L84.9017 218.326C46.5647 224.716 14.3687 243.373 3.93367 276.05C-6.49367 308.703 8.88767 342.567 36.3213 370L118.988 452.667C122.241 455.92 125.887 462.05 128.173 470.037C130.445 477.973 130.637 485.17 129.619 489.79L129.604 489.853L105.976 592.02C96.1243 634.593 99.5413 676.863 129.846 698.977C160.133 721.073 201.454 711.49 239.091 689.153L338.57 630.263L338.633 630.227C343.107 627.647 350.477 625.653 359.123 625.653C367.833 625.653 375.053 627.673 379.253 630.163L478.93 689.167C516.613 711.427 557.983 721.183 588.267 699.107C618.593 676.997 621.847 634.65 612.027 592.04L588.393 489.853L588.38 489.79C587.36 485.17 587.553 477.973 589.827 470.037C592.11 462.05 595.757 455.92 599.01 452.667L681.617 370.06L681.65 370.027C709.257 342.593 724.687 308.703 714.173 276.005C703.677 243.348 671.42 224.714 633.11 218.328L526.777 200.662" fill="#FFB169"/>
</svg>
